<svg width="198" height="198" viewBox="0 0 198 198" fill="none" xmlns="http://www.w3.org/2000/svg">
<g filter="url(#filter0_i_3696_1596)">
<circle cx="99.438" cy="98.918" r="29.4844" fill="#161D18"/>
</g>
<circle cx="99.438" cy="98.918" r="29.1158" stroke="url(#paint0_radial_3696_1596)" stroke-width="0.737109"/>
<g filter="url(#filter1_bi_3696_1596)">
<circle cx="99.6221" cy="99.1022" r="26.7202" fill="url(#paint1_linear_3696_1596)" fill-opacity="0.5"/>
<circle cx="99.6221" cy="99.1022" r="26.5359" stroke="url(#paint2_linear_3696_1596)" stroke-opacity="0.05" stroke-width="0.368555"/>
</g>
<g filter="url(#filter2_d_3696_1596)">
<path d="M95.2268 103.708L97.9701 96.9202C98.0791 96.6487 98.3374 96.452 98.6789 96.3787L100.639 95.9594L97.9213 102.684C97.795 102.995 97.498 103.222 97.1049 103.307L95.2253 103.709L95.2268 103.708Z" fill="white"/>
<path d="M106.531 96.9807L105.098 95.388C104.798 95.0548 104.37 94.8638 103.923 94.8638H94.2781L95.7731 96.5254C96.0342 96.8155 96.4044 96.9807 96.7947 96.9807H101.095C101.469 96.9807 101.725 97.3599 101.584 97.7074L99.1592 103.708L101.039 103.306C101.432 103.222 101.729 102.995 101.855 102.682L104.159 96.9793H106.533L106.531 96.9807Z" fill="white"/>
</g>
<g clip-path="url(#clip0_3696_1596)">
<path d="M142.209 141.689C136.413 147.485 129.652 151.974 122.113 155.032C114.834 157.983 107.146 159.48 99.2601 159.48C91.3751 159.48 83.6864 157.983 76.4076 155.032C68.8682 151.975 62.1068 147.485 56.3107 141.689C50.5146 135.893 46.0265 129.132 42.9684 121.592C40.0176 114.314 38.5212 106.625 38.5212 98.7399C38.5212 90.855 40.0176 83.1663 42.9693 75.8875C46.0265 68.3481 50.5156 61.5866 56.3116 55.7905C62.1077 49.9944 68.8692 45.5063 76.4086 42.4482C83.6864 39.4975 91.3751 38.0011 99.2601 38.0011C107.145 38.0011 114.834 39.4975 122.113 42.4492C129.652 45.5063 136.413 49.9954 142.209 55.7915C148.006 61.5876 152.494 68.349 155.552 75.8884C158.504 83.1672 160 90.855 160 98.7409C160 106.627 158.504 114.315 155.552 121.593C152.495 129.133 148.006 135.894 142.209 141.69V141.689ZM66.8028 66.2826C48.906 84.1794 48.906 113.3 66.8028 131.198C84.6996 149.096 113.821 149.095 131.718 131.198C149.616 113.301 149.615 84.1804 131.718 66.2826C113.822 48.3849 84.7006 48.3858 66.8028 66.2826Z" fill="url(#paint3_linear_3696_1596)"/>
<path d="M99.4835 45.4186C100.196 45.0106 100.683 44.2512 100.683 43.3736C100.683 42.0696 99.6221 41.0085 98.3181 41.0085C97.014 41.0085 95.953 42.0696 95.953 43.3736C95.953 44.2521 96.44 45.0115 97.1526 45.4186C95.3702 45.8861 94.0613 47.3932 94.0613 49.1795V49.7603C94.0613 49.8911 94.1677 49.9965 94.2975 49.9965C94.4273 49.9965 94.5337 49.8901 94.5337 49.7603V49.1795C94.5337 47.2829 96.2321 45.7387 98.319 45.7387C100.406 45.7387 102.104 47.2829 102.104 49.1795V49.7603C102.104 49.8911 102.211 49.9965 102.341 49.9965C102.47 49.9965 102.577 49.8901 102.577 49.7603V49.1795C102.577 47.3932 101.267 45.8861 99.4855 45.4186H99.4835ZM96.4254 43.3736C96.4254 42.3302 97.2746 41.481 98.3181 41.481C99.3615 41.481 100.211 42.3302 100.211 43.3736C100.211 44.4171 99.3615 45.2663 98.3181 45.2663C97.2746 45.2663 96.4254 44.4171 96.4254 43.3736Z" fill="white" fill-opacity="0.2"/>
<path d="M102.67 45.4244C103.182 45.0847 103.522 44.5049 103.522 43.846C103.522 42.8026 102.672 41.9534 101.629 41.9534C101.498 41.9534 101.393 42.0598 101.393 42.1896C101.393 42.3194 101.499 42.4258 101.629 42.4258C102.412 42.4258 103.048 43.0622 103.048 43.8451C103.048 44.6279 102.412 45.2643 101.629 45.2643C101.498 45.2643 101.393 45.3707 101.393 45.5005C101.393 45.6303 101.499 45.7367 101.629 45.7367C103.195 45.7367 104.468 46.9129 104.468 48.3605V48.8124C104.468 48.9432 104.574 49.0486 104.704 49.0486C104.834 49.0486 104.94 48.9422 104.94 48.8124V48.3605C104.94 46.993 103.986 45.8314 102.668 45.4234L102.67 45.4244Z" fill="white" fill-opacity="0.2"/>
<g opacity="0.05">
<path d="M99.4835 151.804C100.196 151.396 100.683 150.636 100.683 149.759C100.683 148.455 99.6221 147.394 98.3181 147.394C97.014 147.394 95.953 148.455 95.953 149.759C95.953 150.637 96.44 151.397 97.1526 151.804C95.3702 152.271 94.0613 153.778 94.0613 155.565V156.145C94.0613 156.276 94.1677 156.382 94.2975 156.382C94.4273 156.382 94.5337 156.275 94.5337 156.145V155.565C94.5337 153.668 96.2321 152.124 98.319 152.124C100.406 152.124 102.104 153.668 102.104 155.565V156.145C102.104 156.276 102.211 156.382 102.341 156.382C102.47 156.382 102.577 156.275 102.577 156.145V155.565C102.577 153.778 101.267 152.271 99.4855 151.804H99.4835ZM96.4254 149.759C96.4254 148.715 97.2746 147.866 98.3181 147.866C99.3615 147.866 100.211 148.715 100.211 149.759C100.211 150.802 99.3615 151.651 98.3181 151.651C97.2746 151.651 96.4254 150.802 96.4254 149.759Z" fill="white"/>
<path d="M102.67 151.811C103.182 151.471 103.522 150.891 103.522 150.232C103.522 149.189 102.672 148.34 101.629 148.34C101.498 148.34 101.393 148.446 101.393 148.576C101.393 148.706 101.499 148.812 101.629 148.812C102.412 148.812 103.048 149.448 103.048 150.231C103.048 151.014 102.412 151.651 101.629 151.651C101.498 151.651 101.393 151.757 101.393 151.887C101.393 152.017 101.499 152.123 101.629 152.123C103.195 152.123 104.468 153.299 104.468 154.747V155.199C104.468 155.329 104.574 155.435 104.704 155.435C104.834 155.435 104.94 155.328 104.94 155.199V154.747C104.94 153.379 103.986 152.218 102.668 151.81L102.67 151.811Z" fill="white"/>
</g>
<g opacity="0.05">
<path d="M76.4457 146.408C77.1582 146 77.6453 145.24 77.6453 144.363C77.6453 143.059 76.5843 141.998 75.2802 141.998C73.9761 141.998 72.9151 143.059 72.9151 144.363C72.9151 145.241 73.4022 146.001 74.1147 146.408C72.3324 146.875 71.0234 148.382 71.0234 150.169V150.75C71.0234 150.88 71.1298 150.986 71.2597 150.986C71.3895 150.986 71.4959 150.879 71.4959 150.75V150.169C71.4959 148.272 73.1943 146.728 75.2812 146.728C77.3681 146.728 79.0665 148.272 79.0665 150.169V150.75C79.0665 150.88 79.1729 150.986 79.3027 150.986C79.4325 150.986 79.5389 150.879 79.5389 150.75V150.169C79.5389 148.382 78.229 146.875 76.4476 146.408H76.4457ZM73.3876 144.363C73.3876 143.319 74.2368 142.47 75.2802 142.47C76.3237 142.47 77.1729 143.319 77.1729 144.363C77.1729 145.406 76.3237 146.256 75.2802 146.256C74.2368 146.256 73.3876 145.406 73.3876 144.363Z" fill="white"/>
<path d="M79.6317 146.414C80.1442 146.074 80.4839 145.494 80.4839 144.835C80.4839 143.792 79.6346 142.943 78.5912 142.943C78.4604 142.943 78.355 143.049 78.355 143.179C78.355 143.309 78.4614 143.415 78.5912 143.415C79.374 143.415 80.0104 144.052 80.0104 144.834C80.0104 145.617 79.374 146.254 78.5912 146.254C78.4604 146.254 78.355 146.36 78.355 146.49C78.355 146.62 78.4614 146.726 78.5912 146.726C80.1569 146.726 81.4297 147.902 81.4297 149.35V149.802C81.4297 149.933 81.5361 150.038 81.6659 150.038C81.7957 150.038 81.9021 149.932 81.9021 149.802V149.35C81.9021 147.982 80.9485 146.821 79.6298 146.413L79.6317 146.414Z" fill="white"/>
</g>
<g opacity="0.05">
<path d="M122.526 146.408C123.239 146 123.726 145.24 123.726 144.363C123.726 143.059 122.665 141.998 121.361 141.998C120.057 141.998 118.996 143.059 118.996 144.363C118.996 145.241 119.483 146.001 120.195 146.408C118.413 146.875 117.104 148.382 117.104 150.169V150.75C117.104 150.88 117.21 150.986 117.34 150.986C117.47 150.986 117.576 150.879 117.576 150.75V150.169C117.576 148.272 119.275 146.728 121.362 146.728C123.449 146.728 125.147 148.272 125.147 150.169V150.75C125.147 150.88 125.253 150.986 125.383 150.986C125.513 150.986 125.62 150.879 125.62 150.75V150.169C125.62 148.382 124.31 146.875 122.528 146.408H122.526ZM119.468 144.363C119.468 143.319 120.317 142.47 121.361 142.47C122.404 142.47 123.253 143.319 123.253 144.363C123.253 145.406 122.404 146.256 121.361 146.256C120.317 146.256 119.468 145.406 119.468 144.363Z" fill="white"/>
<path d="M125.712 146.414C126.225 146.074 126.564 145.494 126.564 144.835C126.564 143.792 125.715 142.943 124.672 142.943C124.541 142.943 124.436 143.049 124.436 143.179C124.436 143.309 124.542 143.415 124.672 143.415C125.455 143.415 126.091 144.052 126.091 144.834C126.091 145.617 125.455 146.254 124.672 146.254C124.541 146.254 124.436 146.36 124.436 146.49C124.436 146.62 124.542 146.726 124.672 146.726C126.237 146.726 127.51 147.902 127.51 149.35V149.802C127.51 149.933 127.617 150.038 127.746 150.038C127.876 150.038 127.983 149.932 127.983 149.802V149.35C127.983 147.982 127.029 146.821 125.71 146.413L125.712 146.414Z" fill="white"/>
</g>
<g opacity="0.71">
<path d="M78.6771 48.8662C79.3897 48.4582 79.8767 47.6988 79.8767 46.8213C79.8767 45.5172 78.8157 44.4562 77.5117 44.4562C76.2076 44.4562 75.1466 45.5172 75.1466 46.8213C75.1466 47.6998 75.6336 48.4592 76.3462 48.8662C74.5638 49.3338 73.2549 50.8409 73.2549 52.6271V53.2079C73.2549 53.3387 73.3613 53.4441 73.4911 53.4441C73.6209 53.4441 73.7273 53.3377 73.7273 53.2079V52.6271C73.7273 50.7306 75.4257 49.1864 77.5126 49.1864C79.5995 49.1864 81.298 50.7306 81.298 52.6271V53.2079C81.298 53.3387 81.4043 53.4441 81.5342 53.4441C81.664 53.4441 81.7704 53.3377 81.7704 53.2079V52.6271C81.7704 50.8409 80.4605 49.3338 78.6791 48.8662H78.6771ZM75.618 46.8213C75.618 45.7778 76.4672 44.9286 77.5107 44.9286C78.5541 44.9286 79.4033 45.7778 79.4033 46.8213C79.4033 47.8647 78.5541 48.7139 77.5107 48.7139C76.4672 48.7139 75.618 47.8647 75.618 46.8213Z" fill="white" fill-opacity="0.15"/>
<path d="M81.8619 48.8719C82.3744 48.5322 82.7141 47.9524 82.7141 47.2935C82.7141 46.2501 81.8649 45.4009 80.8214 45.4009C80.6906 45.4009 80.5852 45.5073 80.5852 45.6371C80.5852 45.7669 80.6916 45.8733 80.8214 45.8733C81.6043 45.8733 82.2407 46.5097 82.2407 47.2926C82.2407 48.0754 81.6043 48.7118 80.8214 48.7118C80.6906 48.7118 80.5852 48.8182 80.5852 48.948C80.5852 49.0779 80.6916 49.1842 80.8214 49.1842C82.3871 49.1842 83.6599 50.3604 83.6599 51.808V52.2599C83.6599 52.3907 83.7663 52.4962 83.8961 52.4962C84.026 52.4962 84.1324 52.3898 84.1324 52.2599V51.808C84.1324 50.4405 83.1787 49.2789 81.86 48.8709L81.8619 48.8719Z" fill="white" fill-opacity="0.15"/>
</g>
<g opacity="0.46">
<path d="M62.3026 59.1483C63.0152 58.7403 63.5022 57.9809 63.5022 57.1034C63.5022 55.7993 62.4412 54.7383 61.1371 54.7383C59.8331 54.7383 58.7721 55.7993 58.7721 57.1034C58.7721 57.9819 59.2591 58.7413 59.9717 59.1483C58.1893 59.6159 56.8804 61.123 56.8804 62.9092V63.49C56.8804 63.6208 56.9868 63.7262 57.1166 63.7262C57.2464 63.7262 57.3528 63.6198 57.3528 63.49V62.9092C57.3528 61.0127 59.0512 59.4685 61.1381 59.4685C63.225 59.4685 64.9234 61.0127 64.9234 62.9092V63.49C64.9234 63.6208 65.0298 63.7262 65.1597 63.7262C65.2895 63.7262 65.3959 63.6198 65.3959 63.49V62.9092C65.3959 61.123 64.0859 59.6159 62.3046 59.1483H62.3026ZM59.2435 57.1024C59.2435 56.0589 60.0927 55.2097 61.1362 55.2097C62.1796 55.2097 63.0288 56.0589 63.0288 57.1024C63.0288 58.1458 62.1796 58.9951 61.1362 58.9951C60.0927 58.9951 59.2435 58.1458 59.2435 57.1024Z" fill="white" fill-opacity="0.15"/>
<path d="M65.4879 59.1541C66.0004 58.8144 66.3401 58.2346 66.3401 57.5758C66.3401 56.5323 65.4908 55.6831 64.4474 55.6831C64.3166 55.6831 64.2112 55.7895 64.2112 55.9193C64.2112 56.0491 64.3176 56.1555 64.4474 56.1555C65.2302 56.1555 65.8666 56.792 65.8666 57.5748C65.8666 58.3576 65.2302 58.994 64.4474 58.994C64.3166 58.994 64.2112 59.1004 64.2112 59.2303C64.2112 59.3601 64.3176 59.4665 64.4474 59.4665C66.0131 59.4665 67.2859 60.6427 67.2859 62.0902V62.5422C67.2859 62.673 67.3923 62.7784 67.5221 62.7784C67.6519 62.7784 67.7583 62.672 67.7583 62.5422V62.0902C67.7583 60.7227 66.8047 59.5612 65.486 59.1531L65.4879 59.1541Z" fill="white" fill-opacity="0.15"/>
</g>
<g opacity="0.46">
<path d="M50.4901 75.1349C51.2027 74.7269 51.6897 73.9675 51.6897 73.0899C51.6897 71.7859 50.6287 70.7249 49.3246 70.7249C48.0206 70.7249 46.9596 71.7859 46.9596 73.0899C46.9596 73.9684 47.4466 74.7278 48.1592 75.1349C46.3768 75.6024 45.0679 77.1095 45.0679 78.8958V79.4766C45.0679 79.6074 45.1743 79.7128 45.3041 79.7128C45.4339 79.7128 45.5403 79.6064 45.5403 79.4766V78.8958C45.5403 76.9992 47.2387 75.455 49.3256 75.455C51.4125 75.455 53.1109 76.9992 53.1109 78.8958V79.4766C53.1109 79.6074 53.2173 79.7128 53.3472 79.7128C53.477 79.7128 53.5834 79.6064 53.5834 79.4766V78.8958C53.5834 77.1095 52.2734 75.6024 50.4921 75.1349H50.4901ZM47.432 73.0899C47.432 72.0465 48.2812 71.1973 49.3246 71.1973C50.3681 71.1973 51.2173 72.0465 51.2173 73.0899C51.2173 74.1334 50.3681 74.9826 49.3246 74.9826C48.2812 74.9826 47.432 74.1334 47.432 73.0899Z" fill="white" fill-opacity="0.1"/>
<path d="M53.6759 75.1418C54.1884 74.8021 54.528 74.2223 54.528 73.5634C54.528 72.52 53.6788 71.6708 52.6354 71.6708C52.5046 71.6708 52.3992 71.7772 52.3992 71.907C52.3992 72.0368 52.5056 72.1432 52.6354 72.1432C53.4182 72.1432 54.0546 72.7796 54.0546 73.5625C54.0546 74.3453 53.4182 74.9817 52.6354 74.9817C52.5046 74.9817 52.3992 75.0881 52.3992 75.2179C52.3992 75.3477 52.5056 75.4541 52.6354 75.4541C54.2011 75.4541 55.4739 76.6303 55.4739 78.0779V78.5298C55.4739 78.6606 55.5803 78.7661 55.7101 78.7661C55.8399 78.7661 55.9463 78.6597 55.9463 78.5298V78.0779C55.9463 76.7104 54.9927 75.5488 53.674 75.1408L53.6759 75.1418Z" fill="white" fill-opacity="0.1"/>
</g>
<g opacity="0.46">
<path d="M45.7589 95.3021C46.4715 94.8941 46.9585 94.1347 46.9585 93.2572C46.9585 91.9531 45.8975 90.8921 44.5934 90.8921C43.2894 90.8921 42.2284 91.9531 42.2284 93.2572C42.2284 94.1357 42.7154 94.8951 43.428 95.3021C41.6456 95.7697 40.3367 97.2768 40.3367 99.063V99.6438C40.3367 99.7746 40.4431 99.88 40.5729 99.88C40.7027 99.88 40.8091 99.7736 40.8091 99.6438V99.063C40.8091 97.1665 42.5075 95.6223 44.5944 95.6223C46.6813 95.6223 48.3797 97.1665 48.3797 99.063V99.6438C48.3797 99.7746 48.4861 99.88 48.616 99.88C48.7458 99.88 48.8522 99.7736 48.8522 99.6438V99.063C48.8522 97.2768 47.5422 95.7697 45.7609 95.3021H45.7589ZM42.7008 93.2572C42.7008 92.2137 43.55 91.3645 44.5934 91.3645C45.6369 91.3645 46.4861 92.2137 46.4861 93.2572C46.4861 94.3006 45.6369 95.1498 44.5934 95.1498C43.55 95.1498 42.7008 94.3006 42.7008 93.2572Z" fill="white" fill-opacity="0.1"/>
<path d="M48.9452 95.309C49.4576 94.9693 49.7973 94.3895 49.7973 93.7307C49.7973 92.6872 48.9481 91.838 47.9047 91.838C47.7739 91.838 47.6685 91.9444 47.6685 92.0742C47.6685 92.204 47.7749 92.3104 47.9047 92.3104C48.6875 92.3104 49.3239 92.9469 49.3239 93.7297C49.3239 94.5125 48.6875 95.1489 47.9047 95.1489C47.7739 95.1489 47.6685 95.2553 47.6685 95.3852C47.6685 95.515 47.7749 95.6214 47.9047 95.6214C49.4703 95.6214 50.7432 96.7976 50.7432 98.2451V98.6971C50.7432 98.8279 50.8496 98.9333 50.9794 98.9333C51.1092 98.9333 51.2156 98.8269 51.2156 98.6971V98.2451C51.2156 96.8776 50.262 95.7161 48.9432 95.308L48.9452 95.309Z" fill="white" fill-opacity="0.1"/>
</g>
<g opacity="0.25">
<path d="M49.4261 115.469C50.1387 115.061 50.6258 114.302 50.6258 113.425C50.6258 112.12 49.5648 111.059 48.2607 111.059C46.9566 111.059 45.8956 112.12 45.8956 113.425C45.8956 114.303 46.3827 115.062 47.0952 115.469C45.3129 115.937 44.0039 117.444 44.0039 119.23V119.811C44.0039 119.942 44.1103 120.047 44.2401 120.047C44.3699 120.047 44.4763 119.941 44.4763 119.811V119.23C44.4763 117.334 46.1748 115.79 48.2617 115.79C50.3486 115.79 52.047 117.334 52.047 119.23V119.811C52.047 119.942 52.1534 120.047 52.2832 120.047C52.413 120.047 52.5194 119.941 52.5194 119.811V119.23C52.5194 117.444 51.2095 115.937 49.4281 115.469H49.4261ZM46.367 113.425C46.367 112.381 47.2163 111.532 48.2597 111.532C49.3032 111.532 50.1524 112.381 50.1524 113.425C50.1524 114.468 49.3032 115.317 48.2597 115.317C47.2163 115.317 46.367 114.468 46.367 113.425Z" fill="white" fill-opacity="0.1"/>
<path d="M52.611 115.476C53.1234 115.137 53.4631 114.557 53.4631 113.898C53.4631 112.854 52.6139 112.005 51.5704 112.005C51.4396 112.005 51.3342 112.112 51.3342 112.241C51.3342 112.371 51.4406 112.478 51.5704 112.478C52.3533 112.478 52.9897 113.114 52.9897 113.897C52.9897 114.68 52.3533 115.316 51.5704 115.316C51.4396 115.316 51.3342 115.423 51.3342 115.552C51.3342 115.682 51.4406 115.789 51.5704 115.789C53.1361 115.789 54.4089 116.965 54.4089 118.412V118.864C54.4089 118.995 54.5153 119.101 54.6452 119.101C54.775 119.101 54.8814 118.994 54.8814 118.864V118.412C54.8814 117.045 53.9277 115.883 52.609 115.475L52.611 115.476Z" fill="white" fill-opacity="0.1"/>
</g>
<g opacity="0.05">
<path d="M60.3077 133.192C61.0203 132.784 61.5074 132.025 61.5074 131.148C61.5074 129.843 60.4463 128.782 59.1423 128.782C57.8382 128.782 56.7772 129.843 56.7772 131.148C56.7772 132.026 57.2643 132.785 57.9768 133.192C56.1945 133.66 54.8855 135.167 54.8855 136.953V137.534C54.8855 137.665 54.9919 137.77 55.1217 137.77C55.2515 137.77 55.3579 137.664 55.3579 137.534V136.953C55.3579 135.057 57.0563 133.513 59.1432 133.513C61.2302 133.513 62.9286 135.057 62.9286 136.953V137.534C62.9286 137.665 63.035 137.77 63.1648 137.77C63.2946 137.77 63.401 137.664 63.401 137.534V136.953C63.401 135.167 62.0911 133.66 60.3097 133.192H60.3077ZM57.2486 131.147C57.2486 130.103 58.0978 129.254 59.1413 129.254C60.1847 129.254 61.034 130.103 61.034 131.147C61.034 132.19 60.1847 133.039 59.1413 133.039C58.0978 133.039 57.2486 132.19 57.2486 131.147Z" fill="white"/>
<path d="M63.4928 133.198C64.0053 132.859 64.3449 132.279 64.3449 131.62C64.3449 130.577 63.4957 129.727 62.4523 129.727C62.3215 129.727 62.2161 129.834 62.2161 129.964C62.2161 130.093 62.3225 130.2 62.4523 130.2C63.2351 130.2 63.8715 130.836 63.8715 131.619C63.8715 132.402 63.2351 133.038 62.4523 133.038C62.3215 133.038 62.2161 133.145 62.2161 133.274C62.2161 133.404 62.3225 133.511 62.4523 133.511C64.0179 133.511 65.2908 134.687 65.2908 136.134V136.586C65.2908 136.717 65.3972 136.823 65.527 136.823C65.6568 136.823 65.7632 136.716 65.7632 136.586V136.134C65.7632 134.767 64.8096 133.605 63.4909 133.197L63.4928 133.198Z" fill="white"/>
</g>
<g opacity="0.05">
<path d="M139.601 133.192C140.314 132.784 140.801 132.025 140.801 131.148C140.801 129.843 139.74 128.782 138.436 128.782C137.132 128.782 136.071 129.843 136.071 131.148C136.071 132.026 136.558 132.785 137.271 133.192C135.488 133.66 134.179 135.167 134.179 136.953V137.534C134.179 137.665 134.286 137.77 134.415 137.77C134.545 137.77 134.652 137.664 134.652 137.534V136.953C134.652 135.057 136.35 133.513 138.437 133.513C140.524 133.513 142.222 135.057 142.222 136.953V137.534C142.222 137.665 142.329 137.77 142.458 137.77C142.588 137.77 142.695 137.664 142.695 137.534V136.953C142.695 135.167 141.385 133.66 139.603 133.192H139.601ZM136.543 131.147C136.543 130.103 137.393 129.254 138.436 129.254C139.479 129.254 140.329 130.103 140.329 131.147C140.329 132.19 139.479 133.039 138.436 133.039C137.393 133.039 136.543 132.19 136.543 131.147Z" fill="white"/>
<path d="M142.787 133.198C143.3 132.859 143.639 132.279 143.639 131.62C143.639 130.577 142.79 129.727 141.747 129.727C141.616 129.727 141.51 129.834 141.51 129.964C141.51 130.093 141.617 130.2 141.747 130.2C142.53 130.2 143.166 130.836 143.166 131.619C143.166 132.402 142.53 133.038 141.747 133.038C141.616 133.038 141.51 133.145 141.51 133.274C141.51 133.404 141.617 133.511 141.747 133.511C143.312 133.511 144.585 134.687 144.585 136.134V136.586C144.585 136.717 144.692 136.823 144.821 136.823C144.951 136.823 145.058 136.716 145.058 136.586V136.134C145.058 134.767 144.104 133.605 142.785 133.197L142.787 133.198Z" fill="white"/>
</g>
<g opacity="0.25">
<path d="M149.3 115.469C150.012 115.061 150.5 114.302 150.5 113.425C150.5 112.12 149.439 111.059 148.134 111.059C146.83 111.059 145.769 112.12 145.769 113.425C145.769 114.303 146.256 115.062 146.969 115.469C145.187 115.937 143.878 117.444 143.878 119.23V119.811C143.878 119.942 143.984 120.047 144.114 120.047C144.244 120.047 144.35 119.941 144.35 119.811V119.23C144.35 117.334 146.049 115.79 148.135 115.79C150.222 115.79 151.921 117.334 151.921 119.23V119.811C151.921 119.942 152.027 120.047 152.157 120.047C152.287 120.047 152.393 119.941 152.393 119.811V119.23C152.393 117.444 151.083 115.937 149.302 115.469H149.3ZM146.242 113.425C146.242 112.381 147.091 111.532 148.134 111.532C149.178 111.532 150.027 112.381 150.027 113.425C150.027 114.468 149.178 115.317 148.134 115.317C147.091 115.317 146.242 114.468 146.242 113.425Z" fill="white" fill-opacity="0.1"/>
<path d="M152.486 115.476C152.998 115.137 153.338 114.557 153.338 113.898C153.338 112.854 152.489 112.005 151.445 112.005C151.315 112.005 151.209 112.112 151.209 112.241C151.209 112.371 151.316 112.478 151.445 112.478C152.228 112.478 152.865 113.114 152.865 113.897C152.865 114.68 152.228 115.316 151.445 115.316C151.315 115.316 151.209 115.423 151.209 115.552C151.209 115.682 151.316 115.789 151.445 115.789C153.011 115.789 154.284 116.965 154.284 118.412V118.864C154.284 118.995 154.39 119.101 154.52 119.101C154.65 119.101 154.756 118.994 154.756 118.864V118.412C154.756 117.045 153.803 115.883 152.484 115.475L152.486 115.476Z" fill="white" fill-opacity="0.1"/>
</g>
<g opacity="0.46">
<path d="M152.376 95.3021C153.088 94.8941 153.575 94.1347 153.575 93.2572C153.575 91.9531 152.514 90.8921 151.21 90.8921C149.906 90.8921 148.845 91.9531 148.845 93.2572C148.845 94.1357 149.332 94.8951 150.045 95.3021C148.262 95.7697 146.953 97.2768 146.953 99.063V99.6438C146.953 99.7746 147.06 99.88 147.19 99.88C147.319 99.88 147.426 99.7736 147.426 99.6438V99.063C147.426 97.1665 149.124 95.6223 151.211 95.6223C153.298 95.6223 154.996 97.1665 154.996 99.063V99.6438C154.996 99.7746 155.103 99.88 155.233 99.88C155.362 99.88 155.469 99.7736 155.469 99.6438V99.063C155.469 97.2768 154.159 95.7697 152.378 95.3021H152.376ZM149.317 93.2572C149.317 92.2137 150.166 91.3645 151.209 91.3645C152.253 91.3645 153.102 92.2137 153.102 93.2572C153.102 94.3006 152.253 95.1498 151.209 95.1498C150.166 95.1498 149.317 94.3006 149.317 93.2572Z" fill="white" fill-opacity="0.1"/>
<path d="M155.56 95.309C156.073 94.9693 156.413 94.3895 156.413 93.7307C156.413 92.6872 155.563 91.838 154.52 91.838C154.389 91.838 154.284 91.9444 154.284 92.0742C154.284 92.204 154.39 92.3104 154.52 92.3104C155.303 92.3104 155.939 92.9469 155.939 93.7297C155.939 94.5125 155.303 95.1489 154.52 95.1489C154.389 95.1489 154.284 95.2553 154.284 95.3852C154.284 95.515 154.39 95.6214 154.52 95.6214C156.086 95.6214 157.358 96.7976 157.358 98.2451V98.6971C157.358 98.8279 157.465 98.9333 157.595 98.9333C157.724 98.9333 157.831 98.8269 157.831 98.6971V98.2451C157.831 96.8776 156.877 95.7161 155.558 95.308L155.56 95.309Z" fill="white" fill-opacity="0.1"/>
</g>
<g opacity="0.46">
<path d="M148.118 75.1349C148.83 74.7269 149.317 73.9675 149.317 73.0899C149.317 71.7859 148.256 70.7249 146.952 70.7249C145.648 70.7249 144.587 71.7859 144.587 73.0899C144.587 73.9684 145.074 74.7278 145.787 75.1349C144.005 75.6024 142.696 77.1095 142.696 78.8958V79.4766C142.696 79.6074 142.802 79.7128 142.932 79.7128C143.062 79.7128 143.168 79.6064 143.168 79.4766V78.8958C143.168 76.9992 144.866 75.455 146.953 75.455C149.04 75.455 150.739 76.9992 150.739 78.8958V79.4766C150.739 79.6074 150.845 79.7128 150.975 79.7128C151.105 79.7128 151.211 79.6064 151.211 79.4766V78.8958C151.211 77.1095 149.901 75.6024 148.12 75.1349H148.118ZM145.059 73.0899C145.059 72.0465 145.908 71.1973 146.951 71.1973C147.995 71.1973 148.844 72.0465 148.844 73.0899C148.844 74.1334 147.995 74.9826 146.951 74.9826C145.908 74.9826 145.059 74.1334 145.059 73.0899Z" fill="white" fill-opacity="0.1"/>
<path d="M151.303 75.1418C151.815 74.8021 152.155 74.2223 152.155 73.5634C152.155 72.52 151.306 71.6708 150.262 71.6708C150.132 71.6708 150.026 71.7772 150.026 71.907C150.026 72.0368 150.133 72.1432 150.262 72.1432C151.045 72.1432 151.682 72.7796 151.682 73.5625C151.682 74.3453 151.045 74.9817 150.262 74.9817C150.132 74.9817 150.026 75.0881 150.026 75.2179C150.026 75.3477 150.133 75.4541 150.262 75.4541C151.828 75.4541 153.101 76.6303 153.101 78.0779V78.5298C153.101 78.6606 153.207 78.7661 153.337 78.7661C153.467 78.7661 153.573 78.6597 153.573 78.5298V78.0779C153.573 76.7104 152.62 75.5488 151.301 75.1408L151.303 75.1418Z" fill="white" fill-opacity="0.1"/>
</g>
<g opacity="0.46">
<path d="M136.402 59.1483C137.114 58.7403 137.601 57.9809 137.601 57.1034C137.601 55.7993 136.54 54.7383 135.236 54.7383C133.932 54.7383 132.871 55.7993 132.871 57.1034C132.871 57.9819 133.358 58.7413 134.071 59.1483C132.288 59.6159 130.979 61.123 130.979 62.9092V63.49C130.979 63.6208 131.086 63.7262 131.216 63.7262C131.346 63.7262 131.452 63.6198 131.452 63.49V62.9092C131.452 61.0127 133.15 59.4685 135.237 59.4685C137.324 59.4685 139.023 61.0127 139.023 62.9092V63.49C139.023 63.6208 139.129 63.7262 139.259 63.7262C139.389 63.7262 139.495 63.6198 139.495 63.49V62.9092C139.495 61.123 138.185 59.6159 136.404 59.1483H136.402ZM133.344 57.1024C133.344 56.0589 134.193 55.2097 135.236 55.2097C136.28 55.2097 137.129 56.0589 137.129 57.1024C137.129 58.1458 136.28 58.9951 135.236 58.9951C134.193 58.9951 133.344 58.1458 133.344 57.1024Z" fill="white" fill-opacity="0.15"/>
<path d="M139.588 59.1541C140.1 58.8144 140.44 58.2346 140.44 57.5758C140.44 56.5323 139.591 55.6831 138.547 55.6831C138.416 55.6831 138.311 55.7895 138.311 55.9193C138.311 56.0491 138.417 56.1555 138.547 56.1555C139.33 56.1555 139.967 56.792 139.967 57.5748C139.967 58.3576 139.33 58.994 138.547 58.994C138.416 58.994 138.311 59.1004 138.311 59.2303C138.311 59.3601 138.417 59.4665 138.547 59.4665C140.113 59.4665 141.386 60.6427 141.386 62.0902V62.5422C141.386 62.673 141.492 62.7784 141.622 62.7784C141.752 62.7784 141.858 62.672 141.858 62.5422V62.0902C141.858 60.7227 140.905 59.5612 139.586 59.1531L139.588 59.1541Z" fill="white" fill-opacity="0.15"/>
</g>
<g opacity="0.71">
<path d="M120.29 48.8662C121.003 48.4582 121.49 47.6988 121.49 46.8213C121.49 45.5172 120.429 44.4562 119.125 44.4562C117.821 44.4562 116.76 45.5172 116.76 46.8213C116.76 47.6998 117.247 48.4592 117.959 48.8662C116.177 49.3338 114.868 50.8409 114.868 52.6271V53.2079C114.868 53.3387 114.974 53.4441 115.104 53.4441C115.234 53.4441 115.34 53.3377 115.34 53.2079V52.6271C115.34 50.7306 117.039 49.1864 119.126 49.1864C121.213 49.1864 122.911 50.7306 122.911 52.6271V53.2079C122.911 53.3387 123.017 53.4441 123.147 53.4441C123.277 53.4441 123.383 53.3377 123.383 53.2079V52.6271C123.383 50.8409 122.073 49.3338 120.292 48.8662H120.29ZM117.232 46.8213C117.232 45.7778 118.081 44.9286 119.125 44.9286C120.168 44.9286 121.017 45.7778 121.017 46.8213C121.017 47.8647 120.168 48.7139 119.125 48.7139C118.081 48.7139 117.232 47.8647 117.232 46.8213Z" fill="white" fill-opacity="0.15"/>
<path d="M123.476 48.8719C123.989 48.5322 124.328 47.9524 124.328 47.2935C124.328 46.2501 123.479 45.4009 122.436 45.4009C122.305 45.4009 122.199 45.5073 122.199 45.6371C122.199 45.7669 122.306 45.8733 122.436 45.8733C123.219 45.8733 123.855 46.5097 123.855 47.2926C123.855 48.0754 123.219 48.7118 122.436 48.7118C122.305 48.7118 122.199 48.8182 122.199 48.948C122.199 49.0779 122.306 49.1842 122.436 49.1842C124.001 49.1842 125.274 50.3604 125.274 51.808V52.2599C125.274 52.3907 125.381 52.4962 125.51 52.4962C125.64 52.4962 125.747 52.3898 125.747 52.2599V51.808C125.747 50.4405 124.793 49.2789 123.474 48.8709L123.476 48.8719Z" fill="white" fill-opacity="0.15"/>
</g>
</g>
<g clip-path="url(#clip1_3696_1596)">
<path d="M169.081 168.561C159.658 177.983 148.667 185.279 136.41 190.251C124.577 195.049 112.08 197.482 99.26 197.482C86.4419 197.482 73.9427 195.049 62.1099 190.251C49.8535 185.281 38.8618 177.983 29.4394 168.561C20.017 159.138 12.7209 148.146 7.74946 135.89C2.95258 124.057 0.52002 111.558 0.52002 98.74C0.52002 85.9219 2.95258 73.4227 7.75105 61.5899C12.7209 49.3335 20.0186 38.3418 29.441 28.9194C38.8634 19.497 49.8551 12.2009 62.1115 7.22944C73.9427 2.43256 86.4419 0 99.26 0C112.078 0 124.577 2.43256 136.41 7.23103C148.667 12.2009 159.658 19.4986 169.081 28.9209C178.503 38.3433 185.799 49.3351 190.771 61.5915C195.569 73.4242 198.002 85.9219 198.002 98.7416C198.002 111.561 195.569 124.059 190.771 135.892C185.801 148.148 178.503 159.14 169.081 168.562V168.561ZM46.4959 45.9758C17.4019 75.0697 17.4019 122.41 46.4959 151.506C75.5898 180.601 122.93 180.6 152.026 151.506C181.121 122.412 181.12 75.0713 152.026 45.9758C122.932 16.8803 75.5914 16.8819 46.4959 45.9758Z" fill="url(#paint4_linear_3696_1596)"/>
<path d="M99.6232 12.0581C100.782 11.3948 101.573 10.1603 101.573 8.73372C101.573 6.61376 99.8486 4.88892 97.7286 4.88892C95.6087 4.88892 93.8838 6.61376 93.8838 8.73372C93.8838 10.1618 94.6756 11.3964 95.834 12.0581C92.9365 12.8181 90.8086 15.2682 90.8086 18.172V19.1161C90.8086 19.3288 90.9816 19.5001 91.1926 19.5001C91.4036 19.5001 91.5766 19.3272 91.5766 19.1161V18.172C91.5766 15.0888 94.3376 12.5785 97.7302 12.5785C101.123 12.5785 103.884 15.0888 103.884 18.172V19.1161C103.884 19.3288 104.057 19.5001 104.268 19.5001C104.479 19.5001 104.652 19.3272 104.652 19.1161V18.172C104.652 15.2682 102.522 12.8181 99.6264 12.0581H99.6232ZM94.6518 8.73372C94.6518 7.03744 96.0323 5.65693 97.7286 5.65693C99.4249 5.65693 100.805 7.03744 100.805 8.73372C100.805 10.43 99.4249 11.8105 97.7286 11.8105C96.0323 11.8105 94.6518 10.43 94.6518 8.73372Z" fill="white" fill-opacity="0.2"/>
<path d="M104.803 12.0676C105.636 11.5154 106.188 10.5728 106.188 9.50172C106.188 7.80544 104.807 6.42493 103.111 6.42493C102.898 6.42493 102.727 6.59789 102.727 6.80893C102.727 7.01998 102.9 7.19294 103.111 7.19294C104.384 7.19294 105.418 8.22753 105.418 9.50014C105.418 10.7727 104.384 11.8073 103.111 11.8073C102.898 11.8073 102.727 11.9803 102.727 12.1913C102.727 12.4024 102.9 12.5753 103.111 12.5753C105.656 12.5753 107.725 14.4874 107.725 16.8407V17.5753C107.725 17.788 107.898 17.9593 108.109 17.9593C108.321 17.9593 108.493 17.7864 108.493 17.5753V16.8407C108.493 14.6176 106.943 12.7293 104.799 12.066L104.803 12.0676Z" fill="white" fill-opacity="0.2"/>
<g opacity="0.05">
<path d="M99.6232 185.003C100.782 184.34 101.573 183.105 101.573 181.679C101.573 179.559 99.8486 177.834 97.7286 177.834C95.6087 177.834 93.8838 179.559 93.8838 181.679C93.8838 183.107 94.6756 184.341 95.834 185.003C92.9365 185.763 90.8086 188.213 90.8086 191.117V192.061C90.8086 192.274 90.9816 192.445 91.1926 192.445C91.4036 192.445 91.5766 192.272 91.5766 192.061V191.117C91.5766 188.034 94.3376 185.523 97.7302 185.523C101.123 185.523 103.884 188.034 103.884 191.117V192.061C103.884 192.274 104.057 192.445 104.268 192.445C104.479 192.445 104.652 192.272 104.652 192.061V191.117C104.652 188.213 102.522 185.763 99.6264 185.003H99.6232ZM94.6518 181.679C94.6518 179.982 96.0323 178.602 97.7286 178.602C99.4249 178.602 100.805 179.982 100.805 181.679C100.805 183.375 99.4249 184.755 97.7286 184.755C96.0323 184.755 94.6518 183.375 94.6518 181.679Z" fill="white"/>
<path d="M104.803 185.014C105.636 184.462 106.188 183.519 106.188 182.448C106.188 180.752 104.807 179.372 103.111 179.372C102.898 179.372 102.727 179.545 102.727 179.756C102.727 179.967 102.9 180.14 103.111 180.14C104.384 180.14 105.418 181.174 105.418 182.447C105.418 183.719 104.384 184.754 103.111 184.754C102.898 184.754 102.727 184.927 102.727 185.138C102.727 185.349 102.9 185.522 103.111 185.522C105.656 185.522 107.725 187.434 107.725 189.787V190.522C107.725 190.735 107.898 190.906 108.109 190.906C108.321 190.906 108.493 190.733 108.493 190.522V189.787C108.493 187.564 106.943 185.676 104.799 185.013L104.803 185.014Z" fill="white"/>
</g>
<g opacity="0.05">
<path d="M62.1718 176.231C63.3302 175.568 64.122 174.333 64.122 172.907C64.122 170.787 62.3972 169.062 60.2772 169.062C58.1572 169.062 56.4324 170.787 56.4324 172.907C56.4324 174.335 57.2242 175.569 58.3826 176.231C55.4851 176.991 53.3572 179.441 53.3572 182.345V183.289C53.3572 183.502 53.5301 183.673 53.7412 183.673C53.9522 183.673 54.1252 183.5 54.1252 183.289V182.345C54.1252 179.262 56.8862 176.752 60.2788 176.752C63.6714 176.752 66.4324 179.262 66.4324 182.345V183.289C66.4324 183.502 66.6053 183.673 66.8164 183.673C67.0274 183.673 67.2004 183.5 67.2004 183.289V182.345C67.2004 179.441 65.0709 176.991 62.175 176.231H62.1718ZM57.2004 172.907C57.2004 171.211 58.5809 169.83 60.2772 169.83C61.9735 169.83 63.354 171.211 63.354 172.907C63.354 174.603 61.9735 175.984 60.2772 175.984C58.5809 175.984 57.2004 174.603 57.2004 172.907Z" fill="white"/>
<path d="M67.3512 176.241C68.1842 175.688 68.7364 174.746 68.7364 173.675C68.7364 171.979 67.3559 170.598 65.6596 170.598C65.447 170.598 65.2756 170.771 65.2756 170.982C65.2756 171.193 65.4486 171.366 65.6596 171.366C66.9323 171.366 67.9668 172.401 67.9668 173.673C67.9668 174.946 66.9323 175.98 65.6596 175.98C65.447 175.98 65.2756 176.153 65.2756 176.364C65.2756 176.575 65.4486 176.748 65.6596 176.748C68.2049 176.748 70.274 178.661 70.274 181.014V181.748C70.274 181.961 70.447 182.132 70.6581 182.132C70.8691 182.132 71.0421 181.959 71.0421 181.748V181.014C71.0421 178.791 69.4918 176.902 67.348 176.239L67.3512 176.241Z" fill="white"/>
</g>
<g opacity="0.05">
<path d="M137.083 176.231C138.241 175.568 139.033 174.333 139.033 172.907C139.033 170.787 137.308 169.062 135.188 169.062C133.068 169.062 131.344 170.787 131.344 172.907C131.344 174.335 132.135 175.569 133.294 176.231C130.396 176.991 128.268 179.441 128.268 182.345V183.289C128.268 183.502 128.441 183.673 128.652 183.673C128.863 183.673 129.036 183.5 129.036 183.289V182.345C129.036 179.262 131.797 176.752 135.19 176.752C138.582 176.752 141.344 179.262 141.344 182.345V183.289C141.344 183.502 141.516 183.673 141.728 183.673C141.939 183.673 142.112 183.5 142.112 183.289V182.345C142.112 179.441 139.982 176.991 137.086 176.231H137.083ZM132.112 172.907C132.112 171.211 133.492 169.83 135.188 169.83C136.885 169.83 138.265 171.211 138.265 172.907C138.265 174.603 136.885 175.984 135.188 175.984C133.492 175.984 132.112 174.603 132.112 172.907Z" fill="white"/>
<path d="M142.262 176.241C143.095 175.688 143.647 174.746 143.647 173.675C143.647 171.979 142.267 170.598 140.571 170.598C140.358 170.598 140.187 170.771 140.187 170.982C140.187 171.193 140.359 171.366 140.571 171.366C141.843 171.366 142.878 172.401 142.878 173.673C142.878 174.946 141.843 175.98 140.571 175.98C140.358 175.98 140.187 176.153 140.187 176.364C140.187 176.575 140.359 176.748 140.571 176.748C143.116 176.748 145.185 178.661 145.185 181.014V181.748C145.185 181.961 145.358 182.132 145.569 182.132C145.78 182.132 145.953 181.959 145.953 181.748V181.014C145.953 178.791 144.403 176.902 142.259 176.239L142.262 176.241Z" fill="white"/>
</g>
<g opacity="0.71">
<path d="M65.7993 17.6627C66.9576 16.9994 67.7494 15.7649 67.7494 14.3383C67.7494 12.2184 66.0246 10.4935 63.9046 10.4935C61.7847 10.4935 60.0598 12.2184 60.0598 14.3383C60.0598 15.7665 60.8516 17.001 62.01 17.6627C59.1125 18.4228 56.9846 20.8728 56.9846 23.7766V24.7207C56.9846 24.9334 57.1576 25.1048 57.3686 25.1048C57.5797 25.1048 57.7526 24.9318 57.7526 24.7207V23.7766C57.7526 20.6935 60.5137 18.1831 63.9062 18.1831C67.2988 18.1831 70.0598 20.6935 70.0598 23.7766V24.7207C70.0598 24.9334 70.2328 25.1048 70.4438 25.1048C70.6549 25.1048 70.8278 24.9318 70.8278 24.7207V23.7766C70.8278 20.8728 68.6984 18.4228 65.8024 17.6627H65.7993ZM60.8263 14.3383C60.8263 12.6421 62.2068 11.2615 63.9031 11.2615C65.5993 11.2615 66.9798 12.6421 66.9798 14.3383C66.9798 16.0346 65.5993 17.4151 63.9031 17.4151C62.2068 17.4151 60.8263 16.0346 60.8263 14.3383Z" fill="white" fill-opacity="0.15"/>
<path d="M70.9769 17.6721C71.81 17.1199 72.3622 16.1773 72.3622 15.1062C72.3622 13.4099 70.9817 12.0294 69.2854 12.0294C69.0727 12.0294 68.9014 12.2024 68.9014 12.4134C68.9014 12.6245 69.0743 12.7974 69.2854 12.7974C70.558 12.7974 71.5926 13.832 71.5926 15.1046C71.5926 16.3772 70.558 17.4118 69.2854 17.4118C69.0727 17.4118 68.9014 17.5848 68.9014 17.7958C68.9014 18.0069 69.0743 18.1798 69.2854 18.1798C71.8306 18.1798 73.8998 20.0919 73.8998 22.4452V23.1798C73.8998 23.3925 74.0727 23.5638 74.2838 23.5638C74.4948 23.5638 74.6678 23.3909 74.6678 23.1798V22.4452C74.6678 20.222 73.1175 18.3338 70.9737 17.6705L70.9769 17.6721Z" fill="white" fill-opacity="0.15"/>
</g>
<g opacity="0.46">
<path d="M39.1806 34.3779C40.339 33.7146 41.1308 32.4801 41.1308 31.0535C41.1308 28.9336 39.4059 27.2087 37.286 27.2087C35.166 27.2087 33.4412 28.9336 33.4412 31.0535C33.4412 32.4817 34.233 33.7162 35.3914 34.3779C32.4939 35.138 30.366 37.588 30.366 40.4918V41.436C30.366 41.6486 30.5389 41.82 30.75 41.82C30.961 41.82 31.134 41.647 31.134 41.436V40.4918C31.134 37.4087 33.895 34.8984 37.2876 34.8984C40.6801 34.8984 43.4412 37.4087 43.4412 40.4918V41.436C43.4412 41.6486 43.6141 41.82 43.8252 41.82C44.0362 41.82 44.2092 41.647 44.2092 41.436V40.4918C44.2092 37.588 42.0797 35.138 39.1838 34.3779H39.1806ZM34.2076 31.052C34.2076 29.3557 35.5881 27.9752 37.2844 27.9752C38.9807 27.9752 40.3612 29.3557 40.3612 31.052C40.3612 32.7482 38.9807 34.1288 37.2844 34.1288C35.5881 34.1288 34.2076 32.7482 34.2076 31.052Z" fill="white" fill-opacity="0.15"/>
<path d="M44.3587 34.3874C45.1918 33.8352 45.744 32.8926 45.744 31.8215C45.744 30.1253 44.3635 28.7448 42.6672 28.7448C42.4546 28.7448 42.2832 28.9177 42.2832 29.1288C42.2832 29.3398 42.4562 29.5128 42.6672 29.5128C43.9398 29.5128 44.9744 30.5474 44.9744 31.82C44.9744 33.0926 43.9398 34.1272 42.6672 34.1272C42.4546 34.1272 42.2832 34.3001 42.2832 34.5112C42.2832 34.7222 42.4562 34.8952 42.6672 34.8952C45.2124 34.8952 47.2816 36.8073 47.2816 39.1605V39.8952C47.2816 40.1078 47.4546 40.2792 47.6656 40.2792C47.8767 40.2792 48.0496 40.1062 48.0496 39.8952V39.1605C48.0496 36.9374 46.4993 35.0491 44.3556 34.3858L44.3587 34.3874Z" fill="white" fill-opacity="0.15"/>
</g>
<g opacity="0.46">
<path d="M19.9773 60.3664C21.1356 59.7031 21.9274 58.4686 21.9274 57.0421C21.9274 54.9221 20.2026 53.1973 18.0826 53.1973C15.9627 53.1973 14.2378 54.9221 14.2378 57.0421C14.2378 58.4702 15.0296 59.7047 16.188 60.3664C13.2905 61.1265 11.1626 63.5765 11.1626 66.4803V67.4245C11.1626 67.6371 11.3356 67.8085 11.5466 67.8085C11.7576 67.8085 11.9306 67.6355 11.9306 67.4245V66.4803C11.9306 63.3972 14.6916 60.8869 18.0842 60.8869C21.4768 60.8869 24.2378 63.3972 24.2378 66.4803V67.4245C24.2378 67.6371 24.4108 67.8085 24.6218 67.8085C24.8328 67.8085 25.0058 67.6355 25.0058 67.4245V66.4803C25.0058 63.5765 22.8763 61.1265 19.9804 60.3664H19.9773ZM15.0058 57.0421C15.0058 55.3458 16.3863 53.9653 18.0826 53.9653C19.7789 53.9653 21.1594 55.3458 21.1594 57.0421C21.1594 58.7384 19.7789 60.1189 18.0826 60.1189C16.3863 60.1189 15.0058 58.7384 15.0058 57.0421Z" fill="white" fill-opacity="0.1"/>
<path d="M25.1568 60.3776C25.9899 59.8254 26.5421 58.8829 26.5421 57.8118C26.5421 56.1155 25.1616 54.735 23.4653 54.735C23.2527 54.735 23.0813 54.9079 23.0813 55.119C23.0813 55.33 23.2543 55.503 23.4653 55.503C24.7379 55.503 25.7725 56.5376 25.7725 57.8102C25.7725 59.0828 24.7379 60.1174 23.4653 60.1174C23.2527 60.1174 23.0813 60.2904 23.0813 60.5014C23.0813 60.7124 23.2543 60.8854 23.4653 60.8854C26.0105 60.8854 28.0797 62.7975 28.0797 65.1507V65.8854C28.0797 66.098 28.2527 66.2694 28.4637 66.2694C28.6748 66.2694 28.8477 66.0964 28.8477 65.8854V65.1507C28.8477 62.9276 27.2974 61.0393 25.1537 60.376L25.1568 60.3776Z" fill="white" fill-opacity="0.1"/>
</g>
<g opacity="0.46">
<path d="M12.2863 93.1512C13.4447 92.4879 14.2365 91.2534 14.2365 89.8269C14.2365 87.7069 12.5117 85.9821 10.3917 85.9821C8.27174 85.9821 6.54689 87.7069 6.54689 89.8269C6.54689 91.255 7.3387 92.4895 8.49706 93.1512C5.59957 93.9113 3.47168 96.3613 3.47168 99.2651V100.209C3.47168 100.422 3.64464 100.593 3.85568 100.593C4.06673 100.593 4.23969 100.42 4.23969 100.209V99.2651C4.23969 96.182 7.00072 93.6717 10.3933 93.6717C13.7859 93.6717 16.5469 96.182 16.5469 99.2651V100.209C16.5469 100.422 16.7198 100.593 16.9309 100.593C17.1419 100.593 17.3149 100.42 17.3149 100.209V99.2651C17.3149 96.3613 15.1854 93.9113 12.2895 93.1512H12.2863ZM7.3149 89.8269C7.3149 88.1306 8.69541 86.7501 10.3917 86.7501C12.088 86.7501 13.4685 88.1306 13.4685 89.8269C13.4685 91.5232 12.088 92.9037 10.3917 92.9037C8.69541 92.9037 7.3149 91.5232 7.3149 89.8269Z" fill="white" fill-opacity="0.1"/>
<path d="M17.4654 93.1624C18.2985 92.6102 18.8507 91.6677 18.8507 90.5966C18.8507 88.9003 17.4702 87.5198 15.7739 87.5198C15.5613 87.5198 15.3899 87.6927 15.3899 87.9038C15.3899 88.1148 15.5629 88.2878 15.7739 88.2878C17.0465 88.2878 18.0811 89.3224 18.0811 90.595C18.0811 91.8676 17.0465 92.9022 15.7739 92.9022C15.5613 92.9022 15.3899 93.0752 15.3899 93.2862C15.3899 93.4972 15.5629 93.6702 15.7739 93.6702C18.3191 93.6702 20.3883 95.5823 20.3883 97.9355V98.6702C20.3883 98.8828 20.5613 99.0542 20.7723 99.0542C20.9833 99.0542 21.1563 98.8812 21.1563 98.6702V97.9355C21.1563 95.7124 19.606 93.8241 17.4622 93.1608L17.4654 93.1624Z" fill="white" fill-opacity="0.1"/>
</g>
<g opacity="0.25">
<path d="M18.2475 125.936C19.4059 125.273 20.1977 124.038 20.1977 122.612C20.1977 120.492 18.4728 118.767 16.3529 118.767C14.2329 118.767 12.5081 120.492 12.5081 122.612C12.5081 124.04 13.2999 125.275 14.4582 125.936C11.5608 126.696 9.43286 129.146 9.43286 132.05V132.994C9.43286 133.207 9.60582 133.378 9.81687 133.378C10.0279 133.378 10.2009 133.205 10.2009 132.994V132.05C10.2009 128.967 12.9619 126.457 16.3545 126.457C19.747 126.457 22.5081 128.967 22.5081 132.05V132.994C22.5081 133.207 22.681 133.378 22.8921 133.378C23.1031 133.378 23.2761 133.205 23.2761 132.994V132.05C23.2761 129.146 21.1466 126.696 18.2507 125.936H18.2475ZM13.2745 122.612C13.2745 120.916 14.655 119.535 16.3513 119.535C18.0476 119.535 19.4281 120.916 19.4281 122.612C19.4281 124.308 18.0476 125.689 16.3513 125.689C14.655 125.689 13.2745 124.308 13.2745 122.612Z" fill="white" fill-opacity="0.1"/>
<path d="M23.4254 125.947C24.2585 125.395 24.8107 124.453 24.8107 123.381C24.8107 121.685 23.4301 120.305 21.7339 120.305C21.5212 120.305 21.3499 120.478 21.3499 120.689C21.3499 120.9 21.5228 121.073 21.7339 121.073C23.0065 121.073 24.0411 122.107 24.0411 123.38C24.0411 124.653 23.0065 125.687 21.7339 125.687C21.5212 125.687 21.3499 125.86 21.3499 126.071C21.3499 126.282 21.5228 126.455 21.7339 126.455C24.2791 126.455 26.3483 128.367 26.3483 130.72V131.455C26.3483 131.668 26.5212 131.839 26.7323 131.839C26.9433 131.839 27.1163 131.666 27.1163 131.455V130.72C27.1163 128.497 25.566 126.609 23.4222 125.946L23.4254 125.947Z" fill="white" fill-opacity="0.1"/>
</g>
<g opacity="0.05">
<path d="M35.9375 154.748C37.0958 154.084 37.8876 152.85 37.8876 151.423C37.8876 149.303 36.1628 147.578 34.0428 147.578C31.9229 147.578 30.198 149.303 30.198 151.423C30.198 152.851 30.9898 154.086 32.1482 154.748C29.2507 155.508 27.1228 157.958 27.1228 160.861V161.806C27.1228 162.018 27.2958 162.19 27.5068 162.19C27.7179 162.19 27.8908 162.017 27.8908 161.806V160.861C27.8908 157.778 30.6518 155.268 34.0444 155.268C37.437 155.268 40.198 157.778 40.198 160.861V161.806C40.198 162.018 40.371 162.19 40.582 162.19C40.7931 162.19 40.966 162.017 40.966 161.806V160.861C40.966 157.958 38.8365 155.508 35.9406 154.748H35.9375ZM30.9644 151.422C30.9644 149.725 32.3449 148.345 34.0412 148.345C35.7375 148.345 37.118 149.725 37.118 151.422C37.118 153.118 35.7375 154.498 34.0412 154.498C32.3449 154.498 30.9644 153.118 30.9644 151.422Z" fill="white"/>
<path d="M41.1151 154.757C41.9481 154.205 42.5004 153.262 42.5004 152.191C42.5004 150.495 41.1198 149.115 39.4236 149.115C39.2109 149.115 39.0396 149.287 39.0396 149.499C39.0396 149.71 39.2125 149.883 39.4236 149.883C40.6962 149.883 41.7308 150.917 41.7308 152.19C41.7308 153.462 40.6962 154.497 39.4236 154.497C39.2109 154.497 39.0396 154.67 39.0396 154.881C39.0396 155.092 39.2125 155.265 39.4236 155.265C41.9688 155.265 44.038 157.177 44.038 159.53V160.265C44.038 160.478 44.2109 160.649 44.422 160.649C44.633 160.649 44.806 160.476 44.806 160.265V159.53C44.806 157.307 43.2557 155.419 41.1119 154.756L41.1151 154.757Z" fill="white"/>
</g>
<g opacity="0.05">
<path d="M164.841 154.748C165.999 154.084 166.791 152.85 166.791 151.423C166.791 149.303 165.066 147.578 162.946 147.578C160.826 147.578 159.101 149.303 159.101 151.423C159.101 152.851 159.893 154.086 161.051 154.748C158.154 155.508 156.026 157.958 156.026 160.861V161.806C156.026 162.018 156.199 162.19 156.41 162.19C156.621 162.19 156.794 162.017 156.794 161.806V160.861C156.794 157.778 159.555 155.268 162.947 155.268C166.34 155.268 169.101 157.778 169.101 160.861V161.806C169.101 162.018 169.274 162.19 169.485 162.19C169.696 162.19 169.869 162.017 169.869 161.806V160.861C169.869 157.958 167.74 155.508 164.844 154.748H164.841ZM159.869 151.422C159.869 149.725 161.25 148.345 162.946 148.345C164.642 148.345 166.023 149.725 166.023 151.422C166.023 153.118 164.642 154.498 162.946 154.498C161.25 154.498 159.869 153.118 159.869 151.422Z" fill="white"/>
<path d="M170.02 154.757C170.853 154.205 171.405 153.262 171.405 152.191C171.405 150.495 170.025 149.115 168.329 149.115C168.116 149.115 167.945 149.287 167.945 149.499C167.945 149.71 168.118 149.883 168.329 149.883C169.601 149.883 170.636 150.917 170.636 152.19C170.636 153.462 169.601 154.497 168.329 154.497C168.116 154.497 167.945 154.67 167.945 154.881C167.945 155.092 168.118 155.265 168.329 155.265C170.874 155.265 172.943 157.177 172.943 159.53V160.265C172.943 160.478 173.116 160.649 173.327 160.649C173.538 160.649 173.711 160.476 173.711 160.265V159.53C173.711 157.307 172.161 155.419 170.017 154.756L170.02 154.757Z" fill="white"/>
</g>
<g opacity="0.25">
<path d="M180.607 125.936C181.766 125.273 182.557 124.038 182.557 122.612C182.557 120.492 180.832 118.767 178.712 118.767C176.593 118.767 174.868 120.492 174.868 122.612C174.868 124.04 175.66 125.275 176.818 125.936C173.92 126.696 171.792 129.146 171.792 132.05V132.994C171.792 133.207 171.965 133.378 172.176 133.378C172.388 133.378 172.56 133.205 172.56 132.994V132.05C172.56 128.967 175.322 126.457 178.714 126.457C182.107 126.457 184.868 128.967 184.868 132.05V132.994C184.868 133.207 185.041 133.378 185.252 133.378C185.463 133.378 185.636 133.205 185.636 132.994V132.05C185.636 129.146 183.506 126.696 180.61 125.936H180.607ZM175.636 122.612C175.636 120.916 177.016 119.535 178.712 119.535C180.409 119.535 181.789 120.916 181.789 122.612C181.789 124.308 180.409 125.689 178.712 125.689C177.016 125.689 175.636 124.308 175.636 122.612Z" fill="white" fill-opacity="0.1"/>
<path d="M185.786 125.947C186.62 125.395 187.172 124.453 187.172 123.381C187.172 121.685 185.791 120.305 184.095 120.305C183.882 120.305 183.711 120.478 183.711 120.689C183.711 120.9 183.884 121.073 184.095 121.073C185.368 121.073 186.402 122.107 186.402 123.38C186.402 124.653 185.368 125.687 184.095 125.687C183.882 125.687 183.711 125.86 183.711 126.071C183.711 126.282 183.884 126.455 184.095 126.455C186.64 126.455 188.709 128.367 188.709 130.72V131.455C188.709 131.668 188.882 131.839 189.093 131.839C189.304 131.839 189.477 131.666 189.477 131.455V130.72C189.477 128.497 187.927 126.609 185.783 125.946L185.786 125.947Z" fill="white" fill-opacity="0.1"/>
</g>
<g opacity="0.46">
<path d="M185.607 93.1512C186.766 92.4879 187.557 91.2534 187.557 89.8269C187.557 87.7069 185.832 85.9821 183.712 85.9821C181.593 85.9821 179.868 87.7069 179.868 89.8269C179.868 91.255 180.66 92.4895 181.818 93.1512C178.92 93.9113 176.792 96.3613 176.792 99.2651V100.209C176.792 100.422 176.965 100.593 177.176 100.593C177.388 100.593 177.56 100.42 177.56 100.209V99.2651C177.56 96.182 180.322 93.6717 183.714 93.6717C187.107 93.6717 189.868 96.182 189.868 99.2651V100.209C189.868 100.422 190.041 100.593 190.252 100.593C190.463 100.593 190.636 100.42 190.636 100.209V99.2651C190.636 96.3613 188.506 93.9113 185.61 93.1512H185.607ZM180.634 89.8269C180.634 88.1306 182.015 86.7501 183.711 86.7501C185.407 86.7501 186.788 88.1306 186.788 89.8269C186.788 91.5232 185.407 92.9037 183.711 92.9037C182.015 92.9037 180.634 91.5232 180.634 89.8269Z" fill="white" fill-opacity="0.1"/>
<path d="M190.785 93.1624C191.618 92.6102 192.17 91.6677 192.17 90.5966C192.17 88.9003 190.79 87.5198 189.093 87.5198C188.881 87.5198 188.709 87.6927 188.709 87.9038C188.709 88.1148 188.882 88.2878 189.093 88.2878C190.366 88.2878 191.4 89.3224 191.4 90.595C191.4 91.8676 190.366 92.9022 189.093 92.9022C188.881 92.9022 188.709 93.0752 188.709 93.2862C188.709 93.4972 188.882 93.6702 189.093 93.6702C191.638 93.6702 193.708 95.5823 193.708 97.9355V98.6702C193.708 98.8828 193.881 99.0542 194.092 99.0542C194.303 99.0542 194.476 98.8812 194.476 98.6702V97.9355C194.476 95.7124 192.925 93.8241 190.782 93.1608L190.785 93.1624Z" fill="white" fill-opacity="0.1"/>
</g>
<g opacity="0.46">
<path d="M178.686 60.3664C179.844 59.7031 180.636 58.4686 180.636 57.0421C180.636 54.9221 178.911 53.1973 176.791 53.1973C174.671 53.1973 172.946 54.9221 172.946 57.0421C172.946 58.4702 173.738 59.7047 174.896 60.3664C171.999 61.1265 169.871 63.5765 169.871 66.4803V67.4245C169.871 67.6371 170.044 67.8085 170.255 67.8085C170.466 67.8085 170.639 67.6355 170.639 67.4245V66.4803C170.639 63.3972 173.4 60.8869 176.792 60.8869C180.185 60.8869 182.946 63.3972 182.946 66.4803V67.4245C182.946 67.6371 183.119 67.8085 183.33 67.8085C183.541 67.8085 183.714 67.6355 183.714 67.4245V66.4803C183.714 63.5765 181.585 61.1265 178.689 60.3664H178.686ZM173.712 57.0421C173.712 55.3458 175.093 53.9653 176.789 53.9653C178.486 53.9653 179.866 55.3458 179.866 57.0421C179.866 58.7384 178.486 60.1189 176.789 60.1189C175.093 60.1189 173.712 58.7384 173.712 57.0421Z" fill="white" fill-opacity="0.1"/>
<path d="M183.863 60.3776C184.696 59.8254 185.248 58.8829 185.248 57.8118C185.248 56.1155 183.868 54.735 182.172 54.735C181.959 54.735 181.788 54.9079 181.788 55.119C181.788 55.33 181.961 55.503 182.172 55.503C183.444 55.503 184.479 56.5376 184.479 57.8102C184.479 59.0828 183.444 60.1174 182.172 60.1174C181.959 60.1174 181.788 60.2904 181.788 60.5014C181.788 60.7124 181.961 60.8854 182.172 60.8854C184.717 60.8854 186.786 62.7975 186.786 65.1507V65.8854C186.786 66.098 186.959 66.2694 187.17 66.2694C187.381 66.2694 187.554 66.0964 187.554 65.8854V65.1507C187.554 62.9276 186.004 61.0393 183.86 60.376L183.863 60.3776Z" fill="white" fill-opacity="0.1"/>
</g>
<g opacity="0.46">
<path d="M159.639 34.3779C160.797 33.7146 161.589 32.4801 161.589 31.0535C161.589 28.9336 159.864 27.2087 157.744 27.2087C155.625 27.2087 153.9 28.9336 153.9 31.0535C153.9 32.4817 154.691 33.7162 155.85 34.3779C152.952 35.138 150.824 37.588 150.824 40.4918V41.436C150.824 41.6486 150.997 41.82 151.208 41.82C151.42 41.82 151.592 41.647 151.592 41.436V40.4918C151.592 37.4087 154.354 34.8984 157.746 34.8984C161.139 34.8984 163.9 37.4087 163.9 40.4918V41.436C163.9 41.6486 164.073 41.82 164.284 41.82C164.495 41.82 164.668 41.647 164.668 41.436V40.4918C164.668 37.588 162.538 35.138 159.642 34.3779H159.639ZM154.668 31.052C154.668 29.3557 156.048 27.9752 157.744 27.9752C159.441 27.9752 160.821 29.3557 160.821 31.052C160.821 32.7482 159.441 34.1288 157.744 34.1288C156.048 34.1288 154.668 32.7482 154.668 31.052Z" fill="white" fill-opacity="0.15"/>
<path d="M164.818 34.3874C165.652 33.8352 166.204 32.8926 166.204 31.8215C166.204 30.1253 164.823 28.7448 163.127 28.7448C162.914 28.7448 162.743 28.9177 162.743 29.1288C162.743 29.3398 162.916 29.5128 163.127 29.5128C164.4 29.5128 165.434 30.5474 165.434 31.82C165.434 33.0926 164.4 34.1272 163.127 34.1272C162.914 34.1272 162.743 34.3001 162.743 34.5112C162.743 34.7222 162.916 34.8952 163.127 34.8952C165.672 34.8952 167.741 36.8073 167.741 39.1605V39.8952C167.741 40.1078 167.914 40.2792 168.125 40.2792C168.336 40.2792 168.509 40.1062 168.509 39.8952V39.1605C168.509 36.9374 166.959 35.0491 164.815 34.3858L164.818 34.3874Z" fill="white" fill-opacity="0.15"/>
</g>
<g opacity="0.71">
<path d="M133.448 17.6627C134.606 16.9994 135.398 15.7649 135.398 14.3383C135.398 12.2184 133.673 10.4935 131.553 10.4935C129.433 10.4935 127.708 12.2184 127.708 14.3383C127.708 15.7665 128.5 17.001 129.658 17.6627C126.761 18.4228 124.633 20.8728 124.633 23.7766V24.7207C124.633 24.9334 124.806 25.1048 125.017 25.1048C125.228 25.1048 125.401 24.9318 125.401 24.7207V23.7766C125.401 20.6935 128.162 18.1831 131.555 18.1831C134.947 18.1831 137.708 20.6935 137.708 23.7766V24.7207C137.708 24.9334 137.881 25.1048 138.092 25.1048C138.303 25.1048 138.476 24.9318 138.476 24.7207V23.7766C138.476 20.8728 136.347 18.4228 133.451 17.6627H133.448ZM128.476 14.3383C128.476 12.6421 129.857 11.2615 131.553 11.2615C133.249 11.2615 134.63 12.6421 134.63 14.3383C134.63 16.0346 133.249 17.4151 131.553 17.4151C129.857 17.4151 128.476 16.0346 128.476 14.3383Z" fill="white" fill-opacity="0.15"/>
<path d="M138.627 17.6721C139.46 17.1199 140.012 16.1773 140.012 15.1062C140.012 13.4099 138.632 12.0294 136.935 12.0294C136.723 12.0294 136.551 12.2024 136.551 12.4134C136.551 12.6245 136.724 12.7974 136.935 12.7974C138.208 12.7974 139.242 13.832 139.242 15.1046C139.242 16.3772 138.208 17.4118 136.935 17.4118C136.723 17.4118 136.551 17.5848 136.551 17.7958C136.551 18.0069 136.724 18.1798 136.935 18.1798C139.48 18.1798 141.55 20.0919 141.55 22.4452V23.1798C141.55 23.3925 141.723 23.5638 141.934 23.5638C142.145 23.5638 142.318 23.3909 142.318 23.1798V22.4452C142.318 20.222 140.767 18.3338 138.624 17.6705L138.627 17.6721Z" fill="white" fill-opacity="0.15"/>
</g>
</g>
<defs>
<filter id="filter0_i_3696_1596" x="69.9536" y="69.4336" width="58.9688" height="58.9688" filterUnits="userSpaceOnUse" color-interpolation-filters="sRGB">
<feFlood flood-opacity="0" result="BackgroundImageFix"/>
<feBlend mode="normal" in="SourceGraphic" in2="BackgroundImageFix" result="shape"/>
<feColorMatrix in="SourceAlpha" type="matrix" values="0 0 0 0 0 0 0 0 0 0 0 0 0 0 0 0 0 0 127 0" result="hardAlpha"/>
<feOffset/>
<feGaussianBlur stdDeviation="1.47422"/>
<feComposite in2="hardAlpha" operator="arithmetic" k2="-1" k3="1"/>
<feColorMatrix type="matrix" values="0 0 0 0 0 0 0 0 0 0 0 0 0 0 0 0 0 0 0.5 0"/>
<feBlend mode="normal" in2="shape" result="effect1_innerShadow_3696_1596"/>
</filter>
<filter id="filter1_bi_3696_1596" x="72.1647" y="71.6448" width="54.9146" height="54.9146" filterUnits="userSpaceOnUse" color-interpolation-filters="sRGB">
<feFlood flood-opacity="0" result="BackgroundImageFix"/>
<feGaussianBlur in="BackgroundImageFix" stdDeviation="0.368555"/>
<feComposite in2="SourceAlpha" operator="in" result="effect1_backgroundBlur_3696_1596"/>
<feBlend mode="normal" in="SourceGraphic" in2="effect1_backgroundBlur_3696_1596" result="shape"/>
<feColorMatrix in="SourceAlpha" type="matrix" values="0 0 0 0 0 0 0 0 0 0 0 0 0 0 0 0 0 0 127 0" result="hardAlpha"/>
<feOffset/>
<feGaussianBlur stdDeviation="3.68555"/>
<feComposite in2="hardAlpha" operator="arithmetic" k2="-1" k3="1"/>
<feColorMatrix type="matrix" values="0 0 0 0 1 0 0 0 0 1 0 0 0 0 1 0 0 0 0.2 0"/>
<feBlend mode="normal" in2="shape" result="effect2_innerShadow_3696_1596"/>
</filter>
<filter id="filter2_d_3696_1596" x="86.907" y="87.4927" width="26.9966" height="23.5875" filterUnits="userSpaceOnUse" color-interpolation-filters="sRGB">
<feFlood flood-opacity="0" result="BackgroundImageFix"/>
<feColorMatrix in="SourceAlpha" type="matrix" values="0 0 0 0 0 0 0 0 0 0 0 0 0 0 0 0 0 0 127 0" result="hardAlpha"/>
<feOffset/>
<feGaussianBlur stdDeviation="3.68555"/>
<feComposite in2="hardAlpha" operator="out"/>
<feColorMatrix type="matrix" values="0 0 0 0 1 0 0 0 0 1 0 0 0 0 1 0 0 0 0.25 0"/>
<feBlend mode="normal" in2="BackgroundImageFix" result="effect1_dropShadow_3696_1596"/>
<feBlend mode="normal" in="SourceGraphic" in2="effect1_dropShadow_3696_1596" result="shape"/>
</filter>
<radialGradient id="paint0_radial_3696_1596" cx="0" cy="0" r="1" gradientUnits="userSpaceOnUse" gradientTransform="translate(99.438 98.918) rotate(90) scale(29.4844)">
<stop offset="0.98" stop-color="#808080" stop-opacity="0"/>
<stop offset="1" stop-opacity="0.8"/>
</radialGradient>
<linearGradient id="paint1_linear_3696_1596" x1="99.6221" y1="72.382" x2="99.6221" y2="125.822" gradientUnits="userSpaceOnUse">
<stop stop-color="#738C80"/>
<stop offset="1" stop-color="#1C2420"/>
</linearGradient>
<linearGradient id="paint2_linear_3696_1596" x1="99.6221" y1="72.382" x2="99.6221" y2="125.822" gradientUnits="userSpaceOnUse">
<stop stop-color="white"/>
<stop offset="1" stop-color="#999999" stop-opacity="0"/>
</linearGradient>
<linearGradient id="paint3_linear_3696_1596" x1="56.3106" y1="141.689" x2="142.209" y2="55.7906" gradientUnits="userSpaceOnUse">
<stop stop-color="#54615B" stop-opacity="0"/>
<stop offset="1" stop-color="#232E28"/>
</linearGradient>
<linearGradient id="paint4_linear_3696_1596" x1="29.4393" y1="168.56" x2="169.08" y2="28.9195" gradientUnits="userSpaceOnUse">
<stop stop-color="#54615B" stop-opacity="0"/>
<stop offset="1" stop-color="#232E28"/>
</linearGradient>
<clipPath id="clip0_3696_1596">
<rect width="121.478" height="121.478" fill="white" transform="translate(38.5212 38.0011)"/>
</clipPath>
<clipPath id="clip1_3696_1596">
<rect width="197.48" height="197.48" fill="white" transform="translate(0.52002)"/>
</clipPath>
</defs>
</svg>
