<svg width="604" height="191" viewBox="0 0 604 191" fill="none" xmlns="http://www.w3.org/2000/svg">
<g clip-path="url(#clip0_2569_135)">
<path d="M178.941 175.378H155.28C154.012 175.378 152.841 174.694 152.158 173.571L76.1518 41.9389C75.42 40.7182 75.42 39.2535 76.1518 37.984L88.0064 17.4775C89.5187 14.8409 93.3239 14.8409 94.8363 17.4775L176.307 158.582L182.453 169.226C184.015 171.911 182.063 175.329 178.941 175.329V175.378Z" fill="white"/>
<path d="M114.838 175.378C114.448 175.524 114.009 175.573 113.57 175.573H89.8603C89.4212 175.573 88.9822 175.524 88.5919 175.378C87.7138 175.085 86.9332 174.499 86.4454 173.62L61.9555 131.142C60.4432 128.506 56.6868 128.506 55.1745 131.142L30.9773 173.083C30.148 174.499 28.6356 175.378 26.977 175.378H4.04819C0.877193 175.378 -1.12298 171.96 0.486916 169.177L6.73135 158.338L46.1493 90.1781C48.5398 85.735 53.1743 82.659 58.5406 82.659C63.9069 82.659 68.1512 85.3932 70.6392 89.5434H70.7367L116.985 169.714C118.253 171.96 117.082 174.597 114.838 175.378Z" fill="white"/>
</g>
<path d="M256.338 85.568C249.478 85.568 243.565 84.1307 238.6 81.256C233.635 78.316 229.813 74.1347 227.134 68.712C224.521 63.2893 223.214 56.8213 223.214 49.308C223.214 41.7947 224.521 35.3267 227.134 29.904C229.813 24.416 233.635 20.202 238.6 17.262C243.565 14.322 249.478 12.852 256.338 12.852C263.329 12.852 269.274 14.322 274.174 17.262C279.139 20.202 282.929 24.416 285.542 29.904C288.221 35.3267 289.56 41.7947 289.56 49.308C289.56 56.8213 288.221 63.2893 285.542 68.712C282.929 74.1347 279.139 78.316 274.174 81.256C269.274 84.1307 263.329 85.568 256.338 85.568ZM256.338 74.494C260.585 74.494 264.178 73.514 267.118 71.554C270.123 69.5287 272.41 66.654 273.978 62.93C275.611 59.1407 276.428 54.6 276.428 49.308C276.428 44.016 275.611 39.4753 273.978 35.686C272.41 31.8967 270.123 28.9893 267.118 26.964C264.178 24.9387 260.585 23.926 256.338 23.926C252.222 23.926 248.661 24.9387 245.656 26.964C242.651 28.9893 240.331 31.8967 238.698 35.686C237.13 39.4753 236.346 44.016 236.346 49.308C236.346 54.6 237.13 59.1407 238.698 62.93C240.331 66.654 242.651 69.5287 245.656 71.554C248.661 73.514 252.222 74.494 256.338 74.494ZM300.604 98.7V31.668H312.658L312.952 42.84L311.678 42.252C312.985 38.3973 315.108 35.49 318.048 33.53C321.053 31.5047 324.549 30.492 328.534 30.492C333.499 30.492 337.615 31.7333 340.882 34.216C344.214 36.6987 346.697 39.998 348.33 44.114C349.963 48.23 350.78 52.8033 350.78 57.834C350.78 62.8647 349.931 67.438 348.232 71.554C346.599 75.67 344.116 78.9693 340.784 81.452C337.517 83.9347 333.401 85.176 328.436 85.176C325.823 85.176 323.373 84.7187 321.086 83.804C318.865 82.8893 316.937 81.5827 315.304 79.884C313.736 78.1853 312.625 76.1927 311.972 73.906L313.148 72.926V98.7H300.604ZM325.496 74.984C329.285 74.984 332.258 73.4813 334.414 70.476C336.635 67.4053 337.746 63.1913 337.746 57.834C337.746 52.4767 336.635 48.2953 334.414 45.29C332.258 42.2193 329.285 40.684 325.496 40.684C322.948 40.684 320.759 41.3373 318.93 42.644C317.101 43.8853 315.663 45.78 314.618 48.328C313.638 50.876 313.148 54.0447 313.148 57.834C313.148 61.6233 313.638 64.792 314.618 67.34C315.598 69.888 317.003 71.8153 318.832 73.122C320.727 74.3633 322.948 74.984 325.496 74.984ZM379.668 84C374.441 84 370.587 82.7913 368.104 80.374C365.687 77.9567 364.478 74.1673 364.478 69.006V19.418H377.022V67.83C377.022 70.2473 377.545 71.946 378.59 72.926C379.635 73.8407 381.269 74.298 383.49 74.298H390.84V84H379.668ZM356.246 41.37V31.668H390.84V41.37H356.246ZM400.04 84V31.668H412.584V84H400.04ZM399.844 24.71V13.538H412.878V24.71H399.844ZM427.124 84V31.668H438.492L438.884 44.506L437.708 43.918C438.296 41.1087 439.308 38.724 440.746 36.764C442.248 34.7387 444.045 33.2033 446.136 32.158C448.292 31.0473 450.644 30.492 453.192 30.492C457.634 30.492 461.228 31.766 463.972 34.314C466.716 36.7967 468.447 40.2267 469.166 44.604H467.5C468.088 41.5333 469.1 38.9853 470.538 36.96C471.975 34.8693 473.772 33.2687 475.928 32.158C478.149 31.0473 480.632 30.492 483.376 30.492C486.969 30.492 490.072 31.276 492.686 32.844C495.299 34.3467 497.292 36.568 498.664 39.508C500.101 42.448 500.82 46.074 500.82 50.386V84H488.276V53.62C488.276 49.308 487.524 46.074 486.022 43.918C484.584 41.762 482.363 40.684 479.358 40.684C477.332 40.684 475.601 41.2067 474.164 42.252C472.726 43.2973 471.616 44.8327 470.832 46.858C470.113 48.818 469.754 51.2027 469.754 54.012V84H458.092V54.012C458.092 49.7 457.438 46.4007 456.132 44.114C454.825 41.8273 452.571 40.684 449.37 40.684C447.344 40.684 445.613 41.2067 444.176 42.252C442.804 43.2973 441.693 44.8327 440.844 46.858C440.06 48.818 439.668 51.2027 439.668 54.012V84H427.124ZM509.503 84L534.591 14.42H550.173L575.261 84H561.933L556.151 67.536H528.613L522.831 84H509.503ZM532.337 56.658H552.427L542.431 27.258L532.337 56.658ZM582.569 84V14.42H595.309V84H582.569Z" fill="white"/>
<path d="M244.939 178.12C240.506 178.12 236.609 177.093 233.249 175.04C229.889 172.94 227.276 169.953 225.409 166.08C223.542 162.207 222.609 157.587 222.609 152.22C222.609 146.853 223.542 142.233 225.409 138.36C227.276 134.44 229.889 131.43 233.249 129.33C236.609 127.23 240.506 126.18 244.939 126.18C250.959 126.18 255.626 127.697 258.939 130.73C262.252 133.763 264.422 137.893 265.449 143.12L259.079 143.54C258.379 139.993 256.886 137.193 254.599 135.14C252.312 133.087 249.092 132.06 244.939 132.06C241.766 132.06 238.966 132.877 236.539 134.51C234.159 136.097 232.292 138.407 230.939 141.44C229.586 144.427 228.909 148.02 228.909 152.22C228.909 156.42 229.586 160.013 230.939 163C232.292 165.987 234.159 168.273 236.539 169.86C238.966 171.447 241.766 172.24 244.939 172.24C249.279 172.24 252.639 171.12 255.019 168.88C257.399 166.593 258.892 163.513 259.499 159.64L265.869 160.06C265.262 163.653 264.072 166.803 262.299 169.51C260.526 172.217 258.169 174.34 255.229 175.88C252.336 177.373 248.906 178.12 244.939 178.12ZM288.221 177.84C284.814 177.84 281.828 177.047 279.261 175.46C276.694 173.873 274.711 171.633 273.311 168.74C271.911 165.8 271.211 162.37 271.211 158.45C271.211 154.483 271.911 151.053 273.311 148.16C274.711 145.267 276.694 143.027 279.261 141.44C281.828 139.853 284.814 139.06 288.221 139.06C291.628 139.06 294.591 139.853 297.111 141.44C299.678 143.027 301.661 145.267 303.061 148.16C304.461 151.053 305.161 154.483 305.161 158.45C305.161 162.37 304.461 165.8 303.061 168.74C301.661 171.633 299.678 173.873 297.111 175.46C294.591 177.047 291.628 177.84 288.221 177.84ZM288.221 172.24C291.628 172.24 294.264 171.027 296.131 168.6C298.044 166.127 299.001 162.743 299.001 158.45C299.001 154.157 298.044 150.797 296.131 148.37C294.264 145.897 291.628 144.66 288.221 144.66C284.814 144.66 282.154 145.897 280.241 148.37C278.328 150.797 277.371 154.157 277.371 158.45C277.371 162.743 278.328 166.127 280.241 168.6C282.154 171.027 284.814 172.24 288.221 172.24ZM313.174 177V139.9H318.354L318.634 149.28L318.074 149.07C318.541 145.897 319.544 143.587 321.084 142.14C322.671 140.647 324.771 139.9 327.384 139.9H331.024V145.5H327.454C325.588 145.5 324.024 145.85 322.764 146.55C321.551 147.203 320.618 148.207 319.964 149.56C319.358 150.867 319.054 152.547 319.054 154.6V177H313.174ZM351.385 177.84C347.885 177.84 344.852 177.047 342.285 175.46C339.765 173.873 337.805 171.633 336.405 168.74C335.052 165.8 334.375 162.37 334.375 158.45C334.375 154.53 335.052 151.123 336.405 148.23C337.805 145.337 339.742 143.097 342.215 141.51C344.735 139.877 347.698 139.06 351.105 139.06C354.325 139.06 357.172 139.83 359.645 141.37C362.118 142.863 364.032 145.057 365.385 147.95C366.785 150.843 367.485 154.367 367.485 158.52V160.27H340.535C340.768 164.237 341.818 167.223 343.685 169.23C345.598 171.237 348.165 172.24 351.385 172.24C353.812 172.24 355.795 171.68 357.335 170.56C358.922 169.393 360.018 167.877 360.625 166.01L366.925 166.5C365.945 169.813 364.078 172.543 361.325 174.69C358.618 176.79 355.305 177.84 351.385 177.84ZM340.535 155.09H361.045C360.765 151.497 359.715 148.86 357.895 147.18C356.122 145.5 353.858 144.66 351.105 144.66C348.258 144.66 345.902 145.547 344.035 147.32C342.215 149.047 341.048 151.637 340.535 155.09ZM394.473 177V127.3H403.013L427.583 170.98V127.3H433.603V177H424.643L400.493 134.16V177H394.473ZM459.461 177.84C456.054 177.84 453.068 177.047 450.501 175.46C447.934 173.873 445.951 171.633 444.551 168.74C443.151 165.8 442.451 162.37 442.451 158.45C442.451 154.483 443.151 151.053 444.551 148.16C445.951 145.267 447.934 143.027 450.501 141.44C453.068 139.853 456.054 139.06 459.461 139.06C462.868 139.06 465.831 139.853 468.351 141.44C470.918 143.027 472.901 145.267 474.301 148.16C475.701 151.053 476.401 154.483 476.401 158.45C476.401 162.37 475.701 165.8 474.301 168.74C472.901 171.633 470.918 173.873 468.351 175.46C465.831 177.047 462.868 177.84 459.461 177.84ZM459.461 172.24C462.868 172.24 465.504 171.027 467.371 168.6C469.284 166.127 470.241 162.743 470.241 158.45C470.241 154.157 469.284 150.797 467.371 148.37C465.504 145.897 462.868 144.66 459.461 144.66C456.054 144.66 453.394 145.897 451.481 148.37C449.568 150.797 448.611 154.157 448.611 158.45C448.611 162.743 449.568 166.127 451.481 168.6C453.394 171.027 456.054 172.24 459.461 172.24ZM497.574 177.84C494.354 177.84 491.554 177.047 489.174 175.46C486.841 173.873 485.044 171.633 483.784 168.74C482.524 165.847 481.894 162.417 481.894 158.45C481.894 154.483 482.524 151.053 483.784 148.16C485.044 145.267 486.841 143.027 489.174 141.44C491.554 139.853 494.354 139.06 497.574 139.06C500.048 139.06 502.311 139.597 504.364 140.67C506.418 141.697 507.958 143.167 508.984 145.08V127.3H514.864V177H509.544L509.334 171.4C508.308 173.407 506.744 174.993 504.644 176.16C502.544 177.28 500.188 177.84 497.574 177.84ZM498.764 172.24C500.958 172.24 502.801 171.68 504.294 170.56C505.834 169.44 507.001 167.853 507.794 165.8C508.588 163.7 508.984 161.25 508.984 158.45C508.984 155.557 508.588 153.083 507.794 151.03C507.001 148.977 505.834 147.413 504.294 146.34C502.801 145.22 500.958 144.66 498.764 144.66C495.498 144.66 492.884 145.897 490.924 148.37C489.011 150.797 488.054 154.157 488.054 158.45C488.054 162.697 489.011 166.057 490.924 168.53C492.884 171.003 495.498 172.24 498.764 172.24ZM539.852 177.84C536.352 177.84 533.318 177.047 530.752 175.46C528.232 173.873 526.272 171.633 524.872 168.74C523.518 165.8 522.842 162.37 522.842 158.45C522.842 154.53 523.518 151.123 524.872 148.23C526.272 145.337 528.208 143.097 530.682 141.51C533.202 139.877 536.165 139.06 539.572 139.06C542.792 139.06 545.638 139.83 548.112 141.37C550.585 142.863 552.498 145.057 553.852 147.95C555.252 150.843 555.952 154.367 555.952 158.52V160.27H529.002C529.235 164.237 530.285 167.223 532.152 169.23C534.065 171.237 536.632 172.24 539.852 172.24C542.278 172.24 544.262 171.68 545.802 170.56C547.388 169.393 548.485 167.877 549.092 166.01L555.392 166.5C554.412 169.813 552.545 172.543 549.792 174.69C547.085 176.79 543.772 177.84 539.852 177.84ZM529.002 155.09H549.512C549.232 151.497 548.182 148.86 546.362 147.18C544.588 145.5 542.325 144.66 539.572 144.66C536.725 144.66 534.368 145.547 532.502 147.32C530.682 149.047 529.515 151.637 529.002 155.09Z" fill="url(#paint0_linear_2569_135)"/>
<path d="M244.939 178.12C240.506 178.12 236.609 177.093 233.249 175.04C229.889 172.94 227.276 169.953 225.409 166.08C223.542 162.207 222.609 157.587 222.609 152.22C222.609 146.853 223.542 142.233 225.409 138.36C227.276 134.44 229.889 131.43 233.249 129.33C236.609 127.23 240.506 126.18 244.939 126.18C250.959 126.18 255.626 127.697 258.939 130.73C262.252 133.763 264.422 137.893 265.449 143.12L259.079 143.54C258.379 139.993 256.886 137.193 254.599 135.14C252.312 133.087 249.092 132.06 244.939 132.06C241.766 132.06 238.966 132.877 236.539 134.51C234.159 136.097 232.292 138.407 230.939 141.44C229.586 144.427 228.909 148.02 228.909 152.22C228.909 156.42 229.586 160.013 230.939 163C232.292 165.987 234.159 168.273 236.539 169.86C238.966 171.447 241.766 172.24 244.939 172.24C249.279 172.24 252.639 171.12 255.019 168.88C257.399 166.593 258.892 163.513 259.499 159.64L265.869 160.06C265.262 163.653 264.072 166.803 262.299 169.51C260.526 172.217 258.169 174.34 255.229 175.88C252.336 177.373 248.906 178.12 244.939 178.12ZM288.221 177.84C284.814 177.84 281.828 177.047 279.261 175.46C276.694 173.873 274.711 171.633 273.311 168.74C271.911 165.8 271.211 162.37 271.211 158.45C271.211 154.483 271.911 151.053 273.311 148.16C274.711 145.267 276.694 143.027 279.261 141.44C281.828 139.853 284.814 139.06 288.221 139.06C291.628 139.06 294.591 139.853 297.111 141.44C299.678 143.027 301.661 145.267 303.061 148.16C304.461 151.053 305.161 154.483 305.161 158.45C305.161 162.37 304.461 165.8 303.061 168.74C301.661 171.633 299.678 173.873 297.111 175.46C294.591 177.047 291.628 177.84 288.221 177.84ZM288.221 172.24C291.628 172.24 294.264 171.027 296.131 168.6C298.044 166.127 299.001 162.743 299.001 158.45C299.001 154.157 298.044 150.797 296.131 148.37C294.264 145.897 291.628 144.66 288.221 144.66C284.814 144.66 282.154 145.897 280.241 148.37C278.328 150.797 277.371 154.157 277.371 158.45C277.371 162.743 278.328 166.127 280.241 168.6C282.154 171.027 284.814 172.24 288.221 172.24ZM313.174 177V139.9H318.354L318.634 149.28L318.074 149.07C318.541 145.897 319.544 143.587 321.084 142.14C322.671 140.647 324.771 139.9 327.384 139.9H331.024V145.5H327.454C325.588 145.5 324.024 145.85 322.764 146.55C321.551 147.203 320.618 148.207 319.964 149.56C319.358 150.867 319.054 152.547 319.054 154.6V177H313.174ZM351.385 177.84C347.885 177.84 344.852 177.047 342.285 175.46C339.765 173.873 337.805 171.633 336.405 168.74C335.052 165.8 334.375 162.37 334.375 158.45C334.375 154.53 335.052 151.123 336.405 148.23C337.805 145.337 339.742 143.097 342.215 141.51C344.735 139.877 347.698 139.06 351.105 139.06C354.325 139.06 357.172 139.83 359.645 141.37C362.118 142.863 364.032 145.057 365.385 147.95C366.785 150.843 367.485 154.367 367.485 158.52V160.27H340.535C340.768 164.237 341.818 167.223 343.685 169.23C345.598 171.237 348.165 172.24 351.385 172.24C353.812 172.24 355.795 171.68 357.335 170.56C358.922 169.393 360.018 167.877 360.625 166.01L366.925 166.5C365.945 169.813 364.078 172.543 361.325 174.69C358.618 176.79 355.305 177.84 351.385 177.84ZM340.535 155.09H361.045C360.765 151.497 359.715 148.86 357.895 147.18C356.122 145.5 353.858 144.66 351.105 144.66C348.258 144.66 345.902 145.547 344.035 147.32C342.215 149.047 341.048 151.637 340.535 155.09ZM394.473 177V127.3H403.013L427.583 170.98V127.3H433.603V177H424.643L400.493 134.16V177H394.473ZM459.461 177.84C456.054 177.84 453.068 177.047 450.501 175.46C447.934 173.873 445.951 171.633 444.551 168.74C443.151 165.8 442.451 162.37 442.451 158.45C442.451 154.483 443.151 151.053 444.551 148.16C445.951 145.267 447.934 143.027 450.501 141.44C453.068 139.853 456.054 139.06 459.461 139.06C462.868 139.06 465.831 139.853 468.351 141.44C470.918 143.027 472.901 145.267 474.301 148.16C475.701 151.053 476.401 154.483 476.401 158.45C476.401 162.37 475.701 165.8 474.301 168.74C472.901 171.633 470.918 173.873 468.351 175.46C465.831 177.047 462.868 177.84 459.461 177.84ZM459.461 172.24C462.868 172.24 465.504 171.027 467.371 168.6C469.284 166.127 470.241 162.743 470.241 158.45C470.241 154.157 469.284 150.797 467.371 148.37C465.504 145.897 462.868 144.66 459.461 144.66C456.054 144.66 453.394 145.897 451.481 148.37C449.568 150.797 448.611 154.157 448.611 158.45C448.611 162.743 449.568 166.127 451.481 168.6C453.394 171.027 456.054 172.24 459.461 172.24ZM497.574 177.84C494.354 177.84 491.554 177.047 489.174 175.46C486.841 173.873 485.044 171.633 483.784 168.74C482.524 165.847 481.894 162.417 481.894 158.45C481.894 154.483 482.524 151.053 483.784 148.16C485.044 145.267 486.841 143.027 489.174 141.44C491.554 139.853 494.354 139.06 497.574 139.06C500.048 139.06 502.311 139.597 504.364 140.67C506.418 141.697 507.958 143.167 508.984 145.08V127.3H514.864V177H509.544L509.334 171.4C508.308 173.407 506.744 174.993 504.644 176.16C502.544 177.28 500.188 177.84 497.574 177.84ZM498.764 172.24C500.958 172.24 502.801 171.68 504.294 170.56C505.834 169.44 507.001 167.853 507.794 165.8C508.588 163.7 508.984 161.25 508.984 158.45C508.984 155.557 508.588 153.083 507.794 151.03C507.001 148.977 505.834 147.413 504.294 146.34C502.801 145.22 500.958 144.66 498.764 144.66C495.498 144.66 492.884 145.897 490.924 148.37C489.011 150.797 488.054 154.157 488.054 158.45C488.054 162.697 489.011 166.057 490.924 168.53C492.884 171.003 495.498 172.24 498.764 172.24ZM539.852 177.84C536.352 177.84 533.318 177.047 530.752 175.46C528.232 173.873 526.272 171.633 524.872 168.74C523.518 165.8 522.842 162.37 522.842 158.45C522.842 154.53 523.518 151.123 524.872 148.23C526.272 145.337 528.208 143.097 530.682 141.51C533.202 139.877 536.165 139.06 539.572 139.06C542.792 139.06 545.638 139.83 548.112 141.37C550.585 142.863 552.498 145.057 553.852 147.95C555.252 150.843 555.952 154.367 555.952 158.52V160.27H529.002C529.235 164.237 530.285 167.223 532.152 169.23C534.065 171.237 536.632 172.24 539.852 172.24C542.278 172.24 544.262 171.68 545.802 170.56C547.388 169.393 548.485 167.877 549.092 166.01L555.392 166.5C554.412 169.813 552.545 172.543 549.792 174.69C547.085 176.79 543.772 177.84 539.852 177.84ZM529.002 155.09H549.512C549.232 151.497 548.182 148.86 546.362 147.18C544.588 145.5 542.325 144.66 539.572 144.66C536.725 144.66 534.368 145.547 532.502 147.32C530.682 149.047 529.515 151.637 529.002 155.09Z" fill="white"/>
<defs>
<linearGradient id="paint0_linear_2569_135" x1="219" y1="154.721" x2="559" y2="154.721" gradientUnits="userSpaceOnUse">
<stop stop-color="#F6F655"/>
<stop offset="1" stop-color="#5EED87"/>
</linearGradient>
<clipPath id="clip0_2569_135">
<rect width="183" height="160" fill="white" transform="translate(0 15.5)"/>
</clipPath>
</defs>
</svg>
