<svg width="1073" height="120" viewBox="0 0 1073 120" fill="none" xmlns="http://www.w3.org/2000/svg">
<path fill-rule="evenodd" clip-rule="evenodd" d="M0 0.0607068L16.595 19.4398C21.7009 25.4023 29.1583 28.8343 37.0082 28.8343H47.2398L12.2292 119.979L12.2107 119.998H36.4375C41.5047 118.849 42.7929 117.146 44.4203 112.92L76.645 28.8343H97.9718L62.9604 119.981L62.9419 120H87.1687C92.2359 118.851 93.5241 117.148 95.1515 112.922L127.377 28.8343H158L141.347 9.39196C136.238 3.42746 128.776 -0.00393905 120.922 3.39346e-06L0 0.0607068Z" fill="white"/>
<path d="M214.554 97.882C209.262 97.882 204.525 96.9673 200.344 95.138C196.228 93.2433 192.733 90.728 189.858 87.592C186.983 84.3907 184.795 80.6667 183.292 76.42C181.789 72.108 181.038 67.5347 181.038 62.7C181.038 57.8653 181.789 53.3247 183.292 49.078C184.795 44.766 186.983 41.042 189.858 37.906C192.733 34.7047 196.228 32.1893 200.344 30.36C204.525 28.5307 209.262 27.616 214.554 27.616C219.846 27.616 224.55 28.5307 228.666 30.36C232.847 32.1893 236.375 34.7047 239.25 37.906C242.125 41.042 244.313 44.766 245.816 49.078C247.319 53.3247 248.07 57.8653 248.07 62.7C248.07 67.5347 247.319 72.108 245.816 76.42C244.313 80.6667 242.125 84.3907 239.25 87.592C236.375 90.728 232.847 93.2433 228.666 95.138C224.55 96.9673 219.846 97.882 214.554 97.882ZM214.554 42.316C211.614 42.316 209.001 42.8387 206.714 43.884C204.427 44.9293 202.533 46.3667 201.03 48.196C199.527 50.0253 198.384 52.1813 197.6 54.664C196.816 57.1467 196.424 59.8253 196.424 62.7C196.424 65.64 196.816 68.3513 197.6 70.834C198.384 73.3167 199.527 75.4727 201.03 77.302C202.533 79.1313 204.427 80.5687 206.714 81.614C209.001 82.6593 211.614 83.182 214.554 83.182C217.494 83.182 220.075 82.6593 222.296 81.614C224.583 80.5687 226.477 79.1313 227.98 77.302C229.548 75.4727 230.724 73.3167 231.508 70.834C232.292 68.3513 232.684 65.64 232.684 62.7C232.684 59.8253 232.292 57.1467 231.508 54.664C230.724 52.1813 229.548 50.0253 227.98 48.196C226.477 46.3667 224.583 44.9293 222.296 43.884C220.075 42.8387 217.494 42.316 214.554 42.316ZM284.633 46.922C288.553 46.922 291.885 47.608 294.629 48.98C297.373 50.352 299.595 52.214 301.293 54.566C303.057 56.8527 304.299 59.564 305.017 62.7C305.801 65.7707 306.193 69.07 306.193 72.598C306.193 76.126 305.801 79.458 305.017 82.594C304.299 85.6647 303.057 88.376 301.293 90.728C299.595 93.0147 297.373 94.844 294.629 96.216C291.885 97.588 288.553 98.274 284.633 98.274C281.105 98.274 278.067 97.784 275.519 96.804C273.037 95.824 270.946 94.5173 269.247 92.884V119.344H256.409V47.804H269.247V52.312C270.946 50.6787 273.037 49.372 275.519 48.392C278.067 47.412 281.105 46.922 284.633 46.922ZM280.909 86.024C282.804 86.024 284.437 85.6973 285.809 85.044C287.247 84.3253 288.39 83.3453 289.239 82.104C290.154 80.8627 290.807 79.4253 291.199 77.792C291.657 76.1587 291.885 74.4273 291.885 72.598C291.885 70.7033 291.657 68.972 291.199 67.404C290.807 65.7707 290.154 64.3333 289.239 63.092C288.39 61.8507 287.247 60.9033 285.809 60.25C284.437 59.5313 282.804 59.172 280.909 59.172C276.989 59.172 274.049 60.3807 272.089 62.798C270.195 65.2153 269.247 68.286 269.247 72.01V73.186C269.247 76.91 270.195 79.9807 272.089 82.398C274.049 84.8153 276.989 86.024 280.909 86.024ZM331.052 81.026C331.052 82.5287 331.476 83.6393 332.326 84.358C333.24 85.0767 334.482 85.436 336.05 85.436C338.598 85.436 341.864 84.5213 345.85 82.692V94.648C343.367 95.8893 340.982 96.7713 338.696 97.294C336.409 97.882 334.253 98.176 332.228 98.176C327.981 98.176 324.584 97.0653 322.036 94.844C319.488 92.6227 318.214 89.6827 318.214 86.024V59.564H311.354V57.506L329.19 37.906H331.052V47.902H344.87V59.564H331.052V81.026ZM360.875 41.728C358.784 41.728 356.988 41.0093 355.485 39.572C354.048 38.0693 353.329 36.2727 353.329 34.182C353.329 32.0913 354.048 30.3273 355.485 28.89C356.988 27.3873 358.784 26.636 360.875 26.636C362.966 26.636 364.73 27.3873 366.167 28.89C367.67 30.3273 368.421 32.0913 368.421 34.182C368.421 36.2727 367.67 38.0693 366.167 39.572C364.73 41.0093 362.966 41.728 360.875 41.728ZM354.505 97.196V47.902H367.343V97.196H354.505ZM430.382 46.726C432.342 46.726 434.237 47.0527 436.066 47.706C437.895 48.294 439.496 49.2087 440.868 50.45C442.24 51.6913 443.318 53.2267 444.102 55.056C444.951 56.8853 445.376 58.976 445.376 61.328V97H432.538V65.64C432.538 63.68 432.048 61.9487 431.068 60.446C430.088 58.878 428.226 58.094 425.482 58.094C423.195 58.094 421.399 59.074 420.092 61.034C418.785 62.994 418.132 65.934 418.132 69.854H418.034V97H405.196V65.64C405.196 63.68 404.706 61.9487 403.726 60.446C402.746 58.878 400.917 58.094 398.238 58.094C395.951 58.094 394.122 59.074 392.75 61.034C391.443 62.994 390.79 65.934 390.79 69.854V97H377.952V47.706H390.79V51.626C392.358 50.1233 394.155 48.9473 396.18 48.098C398.205 47.1833 400.492 46.726 403.04 46.726C405.784 46.726 408.332 47.3467 410.684 48.588C413.036 49.764 414.865 51.4953 416.172 53.782C417.871 51.626 419.863 49.9273 422.15 48.686C424.502 47.3793 427.246 46.726 430.382 46.726ZM466.543 97H450.471L477.617 28.4H494.865L522.011 97H506.037L503.391 90.042C497.773 86.2527 492.056 84.358 486.241 84.358C480.557 84.358 474.841 86.2527 469.091 90.042L466.543 97ZM474.775 74.852C478.499 73.2187 482.321 72.402 486.241 72.402C490.227 72.402 494.081 73.2187 497.805 74.852L486.241 43.884L474.775 74.852ZM528.22 97.098V28.4H543.116V97.098H528.22Z" fill="url(#paint0_linear_670_637)"/>
<path d="M214.554 97.882C209.262 97.882 204.525 96.9673 200.344 95.138C196.228 93.2433 192.733 90.728 189.858 87.592C186.983 84.3907 184.795 80.6667 183.292 76.42C181.789 72.108 181.038 67.5347 181.038 62.7C181.038 57.8653 181.789 53.3247 183.292 49.078C184.795 44.766 186.983 41.042 189.858 37.906C192.733 34.7047 196.228 32.1893 200.344 30.36C204.525 28.5307 209.262 27.616 214.554 27.616C219.846 27.616 224.55 28.5307 228.666 30.36C232.847 32.1893 236.375 34.7047 239.25 37.906C242.125 41.042 244.313 44.766 245.816 49.078C247.319 53.3247 248.07 57.8653 248.07 62.7C248.07 67.5347 247.319 72.108 245.816 76.42C244.313 80.6667 242.125 84.3907 239.25 87.592C236.375 90.728 232.847 93.2433 228.666 95.138C224.55 96.9673 219.846 97.882 214.554 97.882ZM214.554 42.316C211.614 42.316 209.001 42.8387 206.714 43.884C204.427 44.9293 202.533 46.3667 201.03 48.196C199.527 50.0253 198.384 52.1813 197.6 54.664C196.816 57.1467 196.424 59.8253 196.424 62.7C196.424 65.64 196.816 68.3513 197.6 70.834C198.384 73.3167 199.527 75.4727 201.03 77.302C202.533 79.1313 204.427 80.5687 206.714 81.614C209.001 82.6593 211.614 83.182 214.554 83.182C217.494 83.182 220.075 82.6593 222.296 81.614C224.583 80.5687 226.477 79.1313 227.98 77.302C229.548 75.4727 230.724 73.3167 231.508 70.834C232.292 68.3513 232.684 65.64 232.684 62.7C232.684 59.8253 232.292 57.1467 231.508 54.664C230.724 52.1813 229.548 50.0253 227.98 48.196C226.477 46.3667 224.583 44.9293 222.296 43.884C220.075 42.8387 217.494 42.316 214.554 42.316ZM284.633 46.922C288.553 46.922 291.885 47.608 294.629 48.98C297.373 50.352 299.595 52.214 301.293 54.566C303.057 56.8527 304.299 59.564 305.017 62.7C305.801 65.7707 306.193 69.07 306.193 72.598C306.193 76.126 305.801 79.458 305.017 82.594C304.299 85.6647 303.057 88.376 301.293 90.728C299.595 93.0147 297.373 94.844 294.629 96.216C291.885 97.588 288.553 98.274 284.633 98.274C281.105 98.274 278.067 97.784 275.519 96.804C273.037 95.824 270.946 94.5173 269.247 92.884V119.344H256.409V47.804H269.247V52.312C270.946 50.6787 273.037 49.372 275.519 48.392C278.067 47.412 281.105 46.922 284.633 46.922ZM280.909 86.024C282.804 86.024 284.437 85.6973 285.809 85.044C287.247 84.3253 288.39 83.3453 289.239 82.104C290.154 80.8627 290.807 79.4253 291.199 77.792C291.657 76.1587 291.885 74.4273 291.885 72.598C291.885 70.7033 291.657 68.972 291.199 67.404C290.807 65.7707 290.154 64.3333 289.239 63.092C288.39 61.8507 287.247 60.9033 285.809 60.25C284.437 59.5313 282.804 59.172 280.909 59.172C276.989 59.172 274.049 60.3807 272.089 62.798C270.195 65.2153 269.247 68.286 269.247 72.01V73.186C269.247 76.91 270.195 79.9807 272.089 82.398C274.049 84.8153 276.989 86.024 280.909 86.024ZM331.052 81.026C331.052 82.5287 331.476 83.6393 332.326 84.358C333.24 85.0767 334.482 85.436 336.05 85.436C338.598 85.436 341.864 84.5213 345.85 82.692V94.648C343.367 95.8893 340.982 96.7713 338.696 97.294C336.409 97.882 334.253 98.176 332.228 98.176C327.981 98.176 324.584 97.0653 322.036 94.844C319.488 92.6227 318.214 89.6827 318.214 86.024V59.564H311.354V57.506L329.19 37.906H331.052V47.902H344.87V59.564H331.052V81.026ZM360.875 41.728C358.784 41.728 356.988 41.0093 355.485 39.572C354.048 38.0693 353.329 36.2727 353.329 34.182C353.329 32.0913 354.048 30.3273 355.485 28.89C356.988 27.3873 358.784 26.636 360.875 26.636C362.966 26.636 364.73 27.3873 366.167 28.89C367.67 30.3273 368.421 32.0913 368.421 34.182C368.421 36.2727 367.67 38.0693 366.167 39.572C364.73 41.0093 362.966 41.728 360.875 41.728ZM354.505 97.196V47.902H367.343V97.196H354.505ZM430.382 46.726C432.342 46.726 434.237 47.0527 436.066 47.706C437.895 48.294 439.496 49.2087 440.868 50.45C442.24 51.6913 443.318 53.2267 444.102 55.056C444.951 56.8853 445.376 58.976 445.376 61.328V97H432.538V65.64C432.538 63.68 432.048 61.9487 431.068 60.446C430.088 58.878 428.226 58.094 425.482 58.094C423.195 58.094 421.399 59.074 420.092 61.034C418.785 62.994 418.132 65.934 418.132 69.854H418.034V97H405.196V65.64C405.196 63.68 404.706 61.9487 403.726 60.446C402.746 58.878 400.917 58.094 398.238 58.094C395.951 58.094 394.122 59.074 392.75 61.034C391.443 62.994 390.79 65.934 390.79 69.854V97H377.952V47.706H390.79V51.626C392.358 50.1233 394.155 48.9473 396.18 48.098C398.205 47.1833 400.492 46.726 403.04 46.726C405.784 46.726 408.332 47.3467 410.684 48.588C413.036 49.764 414.865 51.4953 416.172 53.782C417.871 51.626 419.863 49.9273 422.15 48.686C424.502 47.3793 427.246 46.726 430.382 46.726ZM466.543 97H450.471L477.617 28.4H494.865L522.011 97H506.037L503.391 90.042C497.773 86.2527 492.056 84.358 486.241 84.358C480.557 84.358 474.841 86.2527 469.091 90.042L466.543 97ZM474.775 74.852C478.499 73.2187 482.321 72.402 486.241 72.402C490.227 72.402 494.081 73.2187 497.805 74.852L486.241 43.884L474.775 74.852ZM528.22 97.098V28.4H543.116V97.098H528.22Z" fill="white"/>
<path d="M579.912 87.634C573.896 81.054 570.888 72.7193 570.888 62.63C570.888 52.5407 573.896 44.2373 579.912 37.72C585.991 31.14 593.981 27.85 603.882 27.85C612.029 27.85 618.922 30.106 624.562 34.618C630.202 39.13 633.805 45.1773 635.372 52.76H628.134C626.818 47.12 623.967 42.6393 619.58 39.318C615.193 35.9967 609.961 34.336 603.882 34.336C596.111 34.336 589.845 36.9367 585.082 42.138C580.382 47.3393 578.032 54.17 578.032 62.63C578.032 71.09 580.382 77.9207 585.082 83.122C589.845 88.3233 596.111 90.924 603.882 90.924C609.961 90.924 615.193 89.2633 619.58 85.942C623.967 82.6207 626.818 78.14 628.134 72.5H635.372C633.805 80.0827 630.202 86.13 624.562 90.642C618.922 95.154 612.029 97.41 603.882 97.41C593.981 97.41 585.991 94.1513 579.912 87.634ZM668.39 97.128C661.12 97.128 655.23 94.684 650.718 89.796C646.268 84.8453 644.044 78.9547 644.044 72.124C644.044 65.2307 646.268 59.34 650.718 54.452C655.23 49.5013 661.12 47.026 668.39 47.026C675.722 47.026 681.612 49.5013 686.062 54.452C690.574 59.34 692.83 65.2307 692.83 72.124C692.83 78.9547 690.574 84.8453 686.062 89.796C681.612 94.684 675.722 97.128 668.39 97.128ZM650.812 72.124C650.812 77.576 652.441 82.1193 655.7 85.754C658.958 89.326 663.188 91.112 668.39 91.112C673.654 91.112 677.915 89.326 681.174 85.754C684.432 82.1193 686.062 77.576 686.062 72.124C686.062 66.6093 684.432 62.066 681.174 58.494C677.915 54.8593 673.654 53.042 668.39 53.042C663.126 53.042 658.864 54.8593 655.606 58.494C652.41 62.066 650.812 66.6093 650.812 72.124ZM728.943 47.778V54.076C728.191 54.0133 727.408 53.982 726.593 53.982C722.332 53.982 718.885 55.2667 716.253 57.836C713.621 60.3427 712.305 64.0087 712.305 68.834V96H705.631V48.154H712.023V55.58C713.151 53.512 715 51.6947 717.569 50.128C720.138 48.4987 723.397 47.684 727.345 47.684L728.943 47.778ZM779.339 74.004H739.577C739.89 79.0173 741.582 83.122 744.653 86.318C747.724 89.514 751.703 91.112 756.591 91.112C760.163 91.112 763.296 90.2033 765.991 88.386C768.686 86.506 770.566 84.062 771.631 81.054H778.587C777.146 85.8167 774.482 89.702 770.597 92.71C766.712 95.6553 762.012 97.128 756.497 97.128C749.228 97.128 743.462 94.7153 739.201 89.89C735.002 85.002 732.903 79.0487 732.903 72.03C732.903 65.1367 735.065 59.246 739.389 54.358C743.776 49.47 749.447 47.026 756.403 47.026C763.359 47.026 768.936 49.376 773.135 54.076C777.334 58.7133 779.433 64.51 779.433 71.466L779.339 74.004ZM756.403 53.042C751.891 53.042 748.131 54.5147 745.123 57.46C742.115 60.3427 740.329 64.04 739.765 68.552H772.759C772.32 63.852 770.628 60.092 767.683 57.272C764.8 54.452 761.04 53.042 756.403 53.042ZM809.752 40.258V96H802.89V29.26H810.128L849.044 85.096V29.26H855.906V96H848.668L809.752 40.258ZM894.316 97.128C887.047 97.128 881.156 94.684 876.644 89.796C872.195 84.8453 869.97 78.9547 869.97 72.124C869.97 65.2307 872.195 59.34 876.644 54.452C881.156 49.5013 887.047 47.026 894.316 47.026C901.648 47.026 907.539 49.5013 911.988 54.452C916.5 59.34 918.756 65.2307 918.756 72.124C918.756 78.9547 916.5 84.8453 911.988 89.796C907.539 94.684 901.648 97.128 894.316 97.128ZM876.738 72.124C876.738 77.576 878.368 82.1193 881.626 85.754C884.885 89.326 889.115 91.112 894.316 91.112C899.58 91.112 903.842 89.326 907.1 85.754C910.359 82.1193 911.988 77.576 911.988 72.124C911.988 66.6093 910.359 62.066 907.1 58.494C903.842 54.8593 899.58 53.042 894.316 53.042C889.052 53.042 884.791 54.8593 881.532 58.494C878.336 62.066 876.738 66.6093 876.738 72.124ZM968.406 56.802V25.5H975.08V96H968.688V87.164C965.116 93.8067 959.069 97.128 950.546 97.128C943.527 97.128 938.013 94.7153 934.002 89.89C929.991 85.002 927.986 79.08 927.986 72.124C927.986 65.1053 929.991 59.1833 934.002 54.358C938.013 49.47 943.527 47.026 950.546 47.026C958.818 47.026 964.771 50.2847 968.406 56.802ZM968.688 72.124C968.688 66.6093 967.184 62.066 964.176 58.494C961.168 54.8593 957.063 53.042 951.862 53.042C946.661 53.042 942.493 54.8593 939.36 58.494C936.289 62.1287 934.754 66.672 934.754 72.124C934.754 77.5133 936.289 82.0253 939.36 85.66C942.493 89.2947 946.661 91.112 951.862 91.112C957.063 91.112 961.168 89.2947 964.176 85.66C967.184 82.0253 968.688 77.5133 968.688 72.124ZM1034.37 74.004H994.603C994.917 79.0173 996.609 83.122 999.679 86.318C1002.75 89.514 1006.73 91.112 1011.62 91.112C1015.19 91.112 1018.32 90.2033 1021.02 88.386C1023.71 86.506 1025.59 84.062 1026.66 81.054H1033.61C1032.17 85.8167 1029.51 89.702 1025.62 92.71C1021.74 95.6553 1017.04 97.128 1011.52 97.128C1004.25 97.128 998.489 94.7153 994.227 89.89C990.029 85.002 987.929 79.0487 987.929 72.03C987.929 65.1367 990.091 59.246 994.415 54.358C998.802 49.47 1004.47 47.026 1011.43 47.026C1018.39 47.026 1023.96 49.376 1028.16 54.076C1032.36 58.7133 1034.46 64.51 1034.46 71.466L1034.37 74.004ZM1011.43 53.042C1006.92 53.042 1003.16 54.5147 1000.15 57.46C997.141 60.3427 995.355 64.04 994.791 68.552H1027.79C1027.35 63.852 1025.65 60.092 1022.71 57.272C1019.83 54.452 1016.07 53.042 1011.43 53.042Z" fill="url(#paint1_linear_670_637)"/>
<defs>
<linearGradient id="paint0_linear_670_637" x1="178" y1="60" x2="1323.13" y2="60" gradientUnits="userSpaceOnUse">
<stop stop-color="white"/>
<stop offset="1" stop-color="#AFAFAF"/>
</linearGradient>
<linearGradient id="paint1_linear_670_637" x1="566" y1="72.7212" x2="1073" y2="72.7212" gradientUnits="userSpaceOnUse">
<stop stop-color="#F6F655"/>
<stop offset="1" stop-color="#5EED87"/>
</linearGradient>
</defs>
</svg>
