<svg width="612" height="191" viewBox="0 0 612 191" fill="none" xmlns="http://www.w3.org/2000/svg">
<path fill-rule="evenodd" clip-rule="evenodd" d="M0 15.5829L24.3855 44.4226C29.4919 50.4617 36.999 53.945 44.9076 53.945H62.1899L16.0992 175.471L16.0748 175.497H47.9683C54.6391 173.965 56.3349 171.695 58.4774 166.059L100.901 53.945H128.976L82.8845 175.474L82.8601 175.5H114.754C121.424 173.968 123.12 171.698 125.263 166.062L167.687 53.945H208L183.536 25.0199C178.427 18.9787 170.915 15.496 163.003 15.5L0 15.5829Z" fill="white"/>
<path d="M276.554 86.882C255.484 86.882 243.038 71.104 243.038 51.7C243.038 32.296 255.484 16.616 276.554 16.616C297.624 16.616 310.07 32.296 310.07 51.7C310.07 71.104 297.624 86.882 276.554 86.882ZM276.554 31.316C264.696 31.316 258.424 40.136 258.424 51.7C258.424 63.362 264.696 72.182 276.554 72.182C288.314 72.182 294.684 63.362 294.684 51.7C294.684 40.136 288.314 31.316 276.554 31.316ZM346.633 35.922C362.411 36.02 368.193 47.486 368.193 61.598C368.193 75.71 362.411 87.176 346.633 87.274C339.577 87.274 334.677 85.118 331.247 81.884V108.344H318.409V36.804H331.247V41.312C334.677 38.078 339.577 35.922 346.633 35.922ZM342.909 75.024C350.553 75.024 353.885 69.046 353.885 61.598C353.885 54.15 350.553 48.172 342.909 48.172C335.167 48.172 331.247 53.562 331.247 61.01V62.186C331.247 69.634 335.167 75.024 342.909 75.024ZM393.052 70.026C393.052 73.064 394.914 74.436 398.05 74.436C400.598 74.436 404.028 73.456 407.85 71.692V83.648C402.852 86.098 398.246 87.176 394.228 87.176C385.8 87.176 380.214 82.276 380.214 75.024V48.564H373.354V46.506L391.19 26.906H393.052V36.902H406.87V48.564H393.052V70.026ZM422.875 30.728C418.759 30.728 415.329 27.396 415.329 23.182C415.329 19.066 418.759 15.636 422.875 15.636C427.089 15.636 430.421 19.066 430.421 23.182C430.421 27.396 427.089 30.728 422.875 30.728ZM429.343 86.196H416.505V36.902H429.343V86.196ZM492.382 35.726C500.32 35.726 507.376 40.822 507.376 50.328V86H494.538V54.64C494.538 50.72 492.97 47.094 487.482 47.094C482.974 47.094 480.132 51.014 480.132 58.854H480.034V86H467.196V54.64C467.196 50.72 465.628 47.094 460.238 47.094C455.632 47.094 452.79 51.014 452.79 58.854V86H439.952V36.706H452.79V40.626C455.926 37.588 459.944 35.726 465.04 35.726C470.528 35.726 475.526 38.176 478.172 42.782C481.504 38.47 486.11 35.726 492.382 35.726ZM531.091 79.042L528.543 86H512.471L539.617 17.4H556.865L584.011 86H568.037L565.391 79.042C559.707 75.22 553.925 73.358 548.241 73.358C542.557 73.358 536.873 75.22 531.091 79.042ZM548.241 32.884L536.775 63.852C540.597 62.186 544.419 61.402 548.241 61.402C552.063 61.402 555.983 62.186 559.805 63.852L548.241 32.884ZM605.116 86.098H590.22V17.4H605.116V86.098Z" fill="url(#paint0_linear_670_210)"/>
<path d="M276.554 86.882C255.484 86.882 243.038 71.104 243.038 51.7C243.038 32.296 255.484 16.616 276.554 16.616C297.624 16.616 310.07 32.296 310.07 51.7C310.07 71.104 297.624 86.882 276.554 86.882ZM276.554 31.316C264.696 31.316 258.424 40.136 258.424 51.7C258.424 63.362 264.696 72.182 276.554 72.182C288.314 72.182 294.684 63.362 294.684 51.7C294.684 40.136 288.314 31.316 276.554 31.316ZM346.633 35.922C362.411 36.02 368.193 47.486 368.193 61.598C368.193 75.71 362.411 87.176 346.633 87.274C339.577 87.274 334.677 85.118 331.247 81.884V108.344H318.409V36.804H331.247V41.312C334.677 38.078 339.577 35.922 346.633 35.922ZM342.909 75.024C350.553 75.024 353.885 69.046 353.885 61.598C353.885 54.15 350.553 48.172 342.909 48.172C335.167 48.172 331.247 53.562 331.247 61.01V62.186C331.247 69.634 335.167 75.024 342.909 75.024ZM393.052 70.026C393.052 73.064 394.914 74.436 398.05 74.436C400.598 74.436 404.028 73.456 407.85 71.692V83.648C402.852 86.098 398.246 87.176 394.228 87.176C385.8 87.176 380.214 82.276 380.214 75.024V48.564H373.354V46.506L391.19 26.906H393.052V36.902H406.87V48.564H393.052V70.026ZM422.875 30.728C418.759 30.728 415.329 27.396 415.329 23.182C415.329 19.066 418.759 15.636 422.875 15.636C427.089 15.636 430.421 19.066 430.421 23.182C430.421 27.396 427.089 30.728 422.875 30.728ZM429.343 86.196H416.505V36.902H429.343V86.196ZM492.382 35.726C500.32 35.726 507.376 40.822 507.376 50.328V86H494.538V54.64C494.538 50.72 492.97 47.094 487.482 47.094C482.974 47.094 480.132 51.014 480.132 58.854H480.034V86H467.196V54.64C467.196 50.72 465.628 47.094 460.238 47.094C455.632 47.094 452.79 51.014 452.79 58.854V86H439.952V36.706H452.79V40.626C455.926 37.588 459.944 35.726 465.04 35.726C470.528 35.726 475.526 38.176 478.172 42.782C481.504 38.47 486.11 35.726 492.382 35.726ZM531.091 79.042L528.543 86H512.471L539.617 17.4H556.865L584.011 86H568.037L565.391 79.042C559.707 75.22 553.925 73.358 548.241 73.358C542.557 73.358 536.873 75.22 531.091 79.042ZM548.241 32.884L536.775 63.852C540.597 62.186 544.419 61.402 548.241 61.402C552.063 61.402 555.983 62.186 559.805 63.852L548.241 32.884ZM605.116 86.098H590.22V17.4H605.116V86.098Z" fill="white"/>
<path d="M251.293 165.77C246.813 160.87 244.573 154.663 244.573 147.15C244.573 139.637 246.813 133.453 251.293 128.6C255.82 123.7 261.77 121.25 269.143 121.25C275.21 121.25 280.343 122.93 284.543 126.29C288.743 129.65 291.427 134.153 292.593 139.8H287.203C286.223 135.6 284.1 132.263 280.833 129.79C277.567 127.317 273.67 126.08 269.143 126.08C263.357 126.08 258.69 128.017 255.143 131.89C251.643 135.763 249.893 140.85 249.893 147.15C249.893 153.45 251.643 158.537 255.143 162.41C258.69 166.283 263.357 168.22 269.143 168.22C273.67 168.22 277.567 166.983 280.833 164.51C284.1 162.037 286.223 158.7 287.203 154.5H292.593C291.427 160.147 288.743 164.65 284.543 168.01C280.343 171.37 275.21 173.05 269.143 173.05C261.77 173.05 255.82 170.623 251.293 165.77ZM317.181 172.84C311.767 172.84 307.381 171.02 304.021 167.38C300.707 163.693 299.051 159.307 299.051 154.22C299.051 149.087 300.707 144.7 304.021 141.06C307.381 137.373 311.767 135.53 317.181 135.53C322.641 135.53 327.027 137.373 330.341 141.06C333.701 144.7 335.381 149.087 335.381 154.22C335.381 159.307 333.701 163.693 330.341 167.38C327.027 171.02 322.641 172.84 317.181 172.84ZM304.091 154.22C304.091 158.28 305.304 161.663 307.731 164.37C310.157 167.03 313.307 168.36 317.181 168.36C321.101 168.36 324.274 167.03 326.701 164.37C329.127 161.663 330.341 158.28 330.341 154.22C330.341 150.113 329.127 146.73 326.701 144.07C324.274 141.363 321.101 140.01 317.181 140.01C313.261 140.01 310.087 141.363 307.661 144.07C305.281 146.73 304.091 150.113 304.091 154.22ZM362.274 136.09V140.78C361.714 140.733 361.13 140.71 360.524 140.71C357.35 140.71 354.784 141.667 352.824 143.58C350.864 145.447 349.884 148.177 349.884 151.77V172H344.914V136.37H349.674V141.9C350.514 140.36 351.89 139.007 353.804 137.84C355.717 136.627 358.144 136.02 361.084 136.02L362.274 136.09ZM399.803 155.62H370.193C370.426 159.353 371.686 162.41 373.973 164.79C376.259 167.17 379.223 168.36 382.863 168.36C385.523 168.36 387.856 167.683 389.863 166.33C391.869 164.93 393.269 163.11 394.063 160.87H399.243C398.169 164.417 396.186 167.31 393.293 169.55C390.399 171.743 386.899 172.84 382.793 172.84C377.379 172.84 373.086 171.043 369.913 167.45C366.786 163.81 365.223 159.377 365.223 154.15C365.223 149.017 366.833 144.63 370.053 140.99C373.319 137.35 377.543 135.53 382.723 135.53C387.903 135.53 392.056 137.28 395.183 140.78C398.309 144.233 399.873 148.55 399.873 153.73L399.803 155.62ZM382.723 140.01C379.363 140.01 376.563 141.107 374.323 143.3C372.083 145.447 370.753 148.2 370.333 151.56H394.903C394.576 148.06 393.316 145.26 391.123 143.16C388.976 141.06 386.176 140.01 382.723 140.01ZM425.25 130.49V172H420.14V122.3H425.53L454.51 163.88V122.3H459.62V172H454.23L425.25 130.49ZM488.224 172.84C482.811 172.84 478.424 171.02 475.064 167.38C471.751 163.693 470.094 159.307 470.094 154.22C470.094 149.087 471.751 144.7 475.064 141.06C478.424 137.373 482.811 135.53 488.224 135.53C493.684 135.53 498.071 137.373 501.384 141.06C504.744 144.7 506.424 149.087 506.424 154.22C506.424 159.307 504.744 163.693 501.384 167.38C498.071 171.02 493.684 172.84 488.224 172.84ZM475.134 154.22C475.134 158.28 476.347 161.663 478.774 164.37C481.201 167.03 484.351 168.36 488.224 168.36C492.144 168.36 495.317 167.03 497.744 164.37C500.171 161.663 501.384 158.28 501.384 154.22C501.384 150.113 500.171 146.73 497.744 144.07C495.317 141.363 492.144 140.01 488.224 140.01C484.304 140.01 481.131 141.363 478.704 144.07C476.324 146.73 475.134 150.113 475.134 154.22ZM543.397 142.81V119.5H548.367V172H543.607V165.42C540.947 170.367 536.444 172.84 530.097 172.84C524.871 172.84 520.764 171.043 517.777 167.45C514.791 163.81 513.297 159.4 513.297 154.22C513.297 148.993 514.791 144.583 517.777 140.99C520.764 137.35 524.871 135.53 530.097 135.53C536.257 135.53 540.691 137.957 543.397 142.81ZM543.607 154.22C543.607 150.113 542.487 146.73 540.247 144.07C538.007 141.363 534.951 140.01 531.077 140.01C527.204 140.01 524.101 141.363 521.767 144.07C519.481 146.777 518.337 150.16 518.337 154.22C518.337 158.233 519.481 161.593 521.767 164.3C524.101 167.007 527.204 168.36 531.077 168.36C534.951 168.36 538.007 167.007 540.247 164.3C542.487 161.593 543.607 158.233 543.607 154.22ZM592.516 155.62H562.906C563.139 159.353 564.399 162.41 566.686 164.79C568.973 167.17 571.936 168.36 575.576 168.36C578.236 168.36 580.569 167.683 582.576 166.33C584.583 164.93 585.983 163.11 586.776 160.87H591.956C590.883 164.417 588.899 167.31 586.006 169.55C583.113 171.743 579.613 172.84 575.506 172.84C570.093 172.84 565.799 171.043 562.626 167.45C559.499 163.81 557.936 159.377 557.936 154.15C557.936 149.017 559.546 144.63 562.766 140.99C566.033 137.35 570.256 135.53 575.436 135.53C580.616 135.53 584.769 137.28 587.896 140.78C591.023 144.233 592.586 148.55 592.586 153.73L592.516 155.62ZM575.436 140.01C572.076 140.01 569.276 141.107 567.036 143.3C564.796 145.447 563.466 148.2 563.046 151.56H587.616C587.289 148.06 586.029 145.26 583.836 143.16C581.689 141.06 578.889 140.01 575.436 140.01Z" fill="url(#paint1_linear_670_210)"/>
<defs>
<linearGradient id="paint0_linear_670_210" x1="240" y1="49" x2="1385.13" y2="49" gradientUnits="userSpaceOnUse">
<stop stop-color="white"/>
<stop offset="1" stop-color="#AFAFAF"/>
</linearGradient>
<linearGradient id="paint1_linear_670_210" x1="240" y1="154.721" x2="596" y2="154.721" gradientUnits="userSpaceOnUse">
<stop stop-color="#F6F655"/>
<stop offset="1" stop-color="#5EED87"/>
</linearGradient>
</defs>
</svg>
