<svg width="1038" height="120" viewBox="0 0 1038 120" fill="none" xmlns="http://www.w3.org/2000/svg">
<g clip-path="url(#clip0_2570_155)">
<path d="M133.961 119.908H116.248C115.299 119.908 114.422 119.396 113.911 118.554L57.0097 19.8291C56.4619 18.9136 56.4619 17.8151 57.0097 16.863L65.8845 1.48306C67.0167 -0.494354 69.8654 -0.494354 70.9976 1.48306L131.989 107.312L136.591 115.294C137.759 117.308 136.299 119.872 133.961 119.872V119.908Z" fill="white"/>
<path d="M85.9716 119.908C85.6795 120.018 85.3508 120.055 85.0221 120.055H67.2725C66.9438 120.055 66.6151 120.018 66.3229 119.908C65.6655 119.689 65.0812 119.249 64.7159 118.59L46.382 86.7317C45.2498 84.7543 42.4376 84.7543 41.3055 86.7317L23.1907 118.187C22.5698 119.249 21.4376 119.908 20.1959 119.908H3.03062C0.656699 119.908 -0.840695 117.345 0.364524 115.258L5.03932 107.128L34.5489 56.0085C36.3385 52.6762 39.8081 50.3692 43.8255 50.3692C47.8429 50.3692 51.0203 52.4199 52.8829 55.5325H52.9559L87.5786 115.661C88.5282 117.345 87.6516 119.323 85.9716 119.908Z" fill="white"/>
</g>
<path d="M206.338 96.568C199.478 96.568 193.565 95.1307 188.6 92.256C183.635 89.316 179.813 85.1347 177.134 79.712C174.521 74.2893 173.214 67.8213 173.214 60.308C173.214 52.7947 174.521 46.3267 177.134 40.904C179.813 35.416 183.635 31.202 188.6 28.262C193.565 25.322 199.478 23.852 206.338 23.852C213.329 23.852 219.274 25.322 224.174 28.262C229.139 31.202 232.929 35.416 235.542 40.904C238.221 46.3267 239.56 52.7947 239.56 60.308C239.56 67.8213 238.221 74.2893 235.542 79.712C232.929 85.1347 229.139 89.316 224.174 92.256C219.274 95.1307 213.329 96.568 206.338 96.568ZM206.338 85.494C210.585 85.494 214.178 84.514 217.118 82.554C220.123 80.5287 222.41 77.654 223.978 73.93C225.611 70.1407 226.428 65.6 226.428 60.308C226.428 55.016 225.611 50.4753 223.978 46.686C222.41 42.8967 220.123 39.9893 217.118 37.964C214.178 35.9387 210.585 34.926 206.338 34.926C202.222 34.926 198.661 35.9387 195.656 37.964C192.651 39.9893 190.331 42.8967 188.698 46.686C187.13 50.4753 186.346 55.016 186.346 60.308C186.346 65.6 187.13 70.1407 188.698 73.93C190.331 77.654 192.651 80.5287 195.656 82.554C198.661 84.514 202.222 85.494 206.338 85.494ZM250.604 109.7V42.668H262.658L262.952 53.84L261.678 53.252C262.985 49.3973 265.108 46.49 268.048 44.53C271.053 42.5047 274.549 41.492 278.534 41.492C283.499 41.492 287.615 42.7333 290.882 45.216C294.214 47.6987 296.697 50.998 298.33 55.114C299.963 59.23 300.78 63.8033 300.78 68.834C300.78 73.8647 299.931 78.438 298.232 82.554C296.599 86.67 294.116 89.9693 290.784 92.452C287.517 94.9347 283.401 96.176 278.436 96.176C275.823 96.176 273.373 95.7187 271.086 94.804C268.865 93.8893 266.937 92.5827 265.304 90.884C263.736 89.1853 262.625 87.1927 261.972 84.906L263.148 83.926V109.7H250.604ZM275.496 85.984C279.285 85.984 282.258 84.4813 284.414 81.476C286.635 78.4053 287.746 74.1913 287.746 68.834C287.746 63.4767 286.635 59.2953 284.414 56.29C282.258 53.2193 279.285 51.684 275.496 51.684C272.948 51.684 270.759 52.3373 268.93 53.644C267.101 54.8853 265.663 56.78 264.618 59.328C263.638 61.876 263.148 65.0447 263.148 68.834C263.148 72.6233 263.638 75.792 264.618 78.34C265.598 80.888 267.003 82.8153 268.832 84.122C270.727 85.3633 272.948 85.984 275.496 85.984ZM329.668 95C324.441 95 320.587 93.7913 318.104 91.374C315.687 88.9567 314.478 85.1673 314.478 80.006V30.418H327.022V78.83C327.022 81.2473 327.545 82.946 328.59 83.926C329.635 84.8407 331.269 85.298 333.49 85.298H340.84V95H329.668ZM306.246 52.37V42.668H340.84V52.37H306.246ZM350.04 95V42.668H362.584V95H350.04ZM349.844 35.71V24.538H362.878V35.71H349.844ZM377.124 95V42.668H388.492L388.884 55.506L387.708 54.918C388.296 52.1087 389.308 49.724 390.746 47.764C392.248 45.7387 394.045 44.2033 396.136 43.158C398.292 42.0473 400.644 41.492 403.192 41.492C407.634 41.492 411.228 42.766 413.972 45.314C416.716 47.7967 418.447 51.2267 419.166 55.604H417.5C418.088 52.5333 419.1 49.9853 420.538 47.96C421.975 45.8693 423.772 44.2687 425.928 43.158C428.149 42.0473 430.632 41.492 433.376 41.492C436.969 41.492 440.072 42.276 442.686 43.844C445.299 45.3467 447.292 47.568 448.664 50.508C450.101 53.448 450.82 57.074 450.82 61.386V95H438.276V64.62C438.276 60.308 437.524 57.074 436.022 54.918C434.584 52.762 432.363 51.684 429.358 51.684C427.332 51.684 425.601 52.2067 424.164 53.252C422.726 54.2973 421.616 55.8327 420.832 57.858C420.113 59.818 419.754 62.2027 419.754 65.012V95H408.092V65.012C408.092 60.7 407.438 57.4007 406.132 55.114C404.825 52.8273 402.571 51.684 399.37 51.684C397.344 51.684 395.613 52.2067 394.176 53.252C392.804 54.2973 391.693 55.8327 390.844 57.858C390.06 59.818 389.668 62.2027 389.668 65.012V95H377.124ZM459.503 95L484.591 25.42H500.173L525.261 95H511.933L506.151 78.536H478.613L472.831 95H459.503ZM482.337 67.658H502.427L492.431 38.258L482.337 67.658ZM532.569 95V25.42H545.309V95H532.569Z" fill="white"/>
<path d="M616.216 95.004C610.263 95.004 605.03 93.6253 600.518 90.868C596.006 88.048 592.497 84.0373 589.99 78.836C587.483 73.6347 586.23 67.4307 586.23 60.224C586.23 53.0173 587.483 46.8133 589.99 41.612C592.497 36.348 596.006 32.306 600.518 29.486C605.03 26.666 610.263 25.256 616.216 25.256C624.3 25.256 630.567 27.2927 635.016 31.366C639.465 35.4393 642.379 40.9853 643.758 48.004L635.204 48.568C634.264 43.8053 632.259 40.0453 629.188 37.288C626.117 34.5307 621.793 33.152 616.216 33.152C611.955 33.152 608.195 34.2487 604.936 36.442C601.74 38.5727 599.233 41.6747 597.416 45.748C595.599 49.7587 594.69 54.584 594.69 60.224C594.69 65.864 595.599 70.6893 597.416 74.7C599.233 78.7107 601.74 81.7813 604.936 83.912C608.195 86.0427 611.955 87.108 616.216 87.108C622.044 87.108 626.556 85.604 629.752 82.596C632.948 79.5253 634.953 75.3893 635.768 70.188L644.322 70.752C643.507 75.5773 641.909 79.8073 639.528 83.442C637.147 87.0767 633.982 89.928 630.034 91.996C626.149 94.0013 621.543 95.004 616.216 95.004ZM674.337 94.628C669.763 94.628 665.752 93.5627 662.305 91.432C658.859 89.3013 656.195 86.2933 654.315 82.408C652.435 78.46 651.495 73.854 651.495 68.59C651.495 63.2633 652.435 58.6573 654.315 54.772C656.195 50.8867 658.859 47.8787 662.305 45.748C665.752 43.6173 669.763 42.552 674.337 42.552C678.912 42.552 682.891 43.6173 686.275 45.748C689.722 47.8787 692.385 50.8867 694.265 54.772C696.145 58.6573 697.085 63.2633 697.085 68.59C697.085 73.854 696.145 78.46 694.265 82.408C692.385 86.2933 689.722 89.3013 686.275 91.432C682.891 93.5627 678.912 94.628 674.337 94.628ZM674.337 87.108C678.912 87.108 682.453 85.4787 684.959 82.22C687.529 78.8987 688.813 74.3553 688.813 68.59C688.813 62.8247 687.529 58.3127 684.959 55.054C682.453 51.7327 678.912 50.072 674.337 50.072C669.763 50.072 666.191 51.7327 663.621 55.054C661.052 58.3127 659.767 62.8247 659.767 68.59C659.767 74.3553 661.052 78.8987 663.621 82.22C666.191 85.4787 669.763 87.108 674.337 87.108ZM707.846 93.5V43.68H714.802L715.178 56.276L714.426 55.994C715.053 51.7327 716.4 48.6307 718.468 46.688C720.599 44.6827 723.419 43.68 726.928 43.68H731.816V51.2H727.022C724.516 51.2 722.416 51.67 720.724 52.61C719.095 53.4873 717.842 54.8347 716.964 56.652C716.15 58.4067 715.742 60.6627 715.742 63.42V93.5H707.846ZM759.158 94.628C754.458 94.628 750.384 93.5627 746.938 91.432C743.554 89.3013 740.922 86.2933 739.042 82.408C737.224 78.46 736.316 73.854 736.316 68.59C736.316 63.326 737.224 58.7513 739.042 54.866C740.922 50.9807 743.522 47.9727 746.844 45.842C750.228 43.6487 754.207 42.552 758.782 42.552C763.106 42.552 766.928 43.586 770.25 45.654C773.571 47.6593 776.14 50.6047 777.958 54.49C779.838 58.3753 780.778 63.1067 780.778 68.684V71.034H744.588C744.901 76.3607 746.311 80.3713 748.818 83.066C751.387 85.7607 754.834 87.108 759.158 87.108C762.416 87.108 765.08 86.356 767.148 84.852C769.278 83.2853 770.751 81.2487 771.566 78.742L780.026 79.4C778.71 83.8493 776.203 87.5153 772.506 90.398C768.871 93.218 764.422 94.628 759.158 94.628ZM744.588 64.078H772.13C771.754 59.2527 770.344 55.712 767.9 53.456C765.518 51.2 762.479 50.072 758.782 50.072C754.959 50.072 751.794 51.2627 749.288 53.644C746.844 55.9627 745.277 59.4407 744.588 64.078ZM817.019 93.5V26.76H828.487L861.481 85.416V26.76H869.565V93.5H857.533L825.103 35.972V93.5H817.019ZM904.289 94.628C899.714 94.628 895.703 93.5627 892.257 91.432C888.81 89.3013 886.147 86.2933 884.267 82.408C882.387 78.46 881.447 73.854 881.447 68.59C881.447 63.2633 882.387 58.6573 884.267 54.772C886.147 50.8867 888.81 47.8787 892.257 45.748C895.703 43.6173 899.714 42.552 904.289 42.552C908.863 42.552 912.843 43.6173 916.227 45.748C919.673 47.8787 922.337 50.8867 924.217 54.772C926.097 58.6573 927.037 63.2633 927.037 68.59C927.037 73.854 926.097 78.46 924.217 82.408C922.337 86.2933 919.673 89.3013 916.227 91.432C912.843 93.5627 908.863 94.628 904.289 94.628ZM904.289 87.108C908.863 87.108 912.404 85.4787 914.911 82.22C917.48 78.8987 918.765 74.3553 918.765 68.59C918.765 62.8247 917.48 58.3127 914.911 55.054C912.404 51.7327 908.863 50.072 904.289 50.072C899.714 50.072 896.142 51.7327 893.573 55.054C891.003 58.3127 889.719 62.8247 889.719 68.59C889.719 74.3553 891.003 78.8987 893.573 82.22C896.142 85.4787 899.714 87.108 904.289 87.108ZM955.469 94.628C951.145 94.628 947.385 93.5627 944.189 91.432C941.056 89.3013 938.643 86.2933 936.951 82.408C935.259 78.5227 934.413 73.9167 934.413 68.59C934.413 63.2633 935.259 58.6573 936.951 54.772C938.643 50.8867 941.056 47.8787 944.189 45.748C947.385 43.6173 951.145 42.552 955.469 42.552C958.791 42.552 961.83 43.2727 964.587 44.714C967.345 46.0927 969.413 48.0667 970.791 50.636V26.76H978.687V93.5H971.543L971.261 85.98C969.883 88.6747 967.783 90.8053 964.963 92.372C962.143 93.876 958.979 94.628 955.469 94.628ZM957.067 87.108C960.013 87.108 962.488 86.356 964.493 84.852C966.561 83.348 968.128 81.2173 969.193 78.46C970.259 75.64 970.791 72.35 970.791 68.59C970.791 64.7047 970.259 61.3833 969.193 58.626C968.128 55.8687 966.561 53.7693 964.493 52.328C962.488 50.824 960.013 50.072 957.067 50.072C952.681 50.072 949.171 51.7327 946.539 55.054C943.97 58.3127 942.685 62.8247 942.685 68.59C942.685 74.2927 943.97 78.8047 946.539 82.126C949.171 85.4473 952.681 87.108 957.067 87.108ZM1012.24 94.628C1007.54 94.628 1003.47 93.5627 1000.02 91.432C996.638 89.3013 994.006 86.2933 992.126 82.408C990.308 78.46 989.4 73.854 989.4 68.59C989.4 63.326 990.308 58.7513 992.126 54.866C994.006 50.9807 996.606 47.9727 999.928 45.842C1003.31 43.6487 1007.29 42.552 1011.87 42.552C1016.19 42.552 1020.01 43.586 1023.33 45.654C1026.66 47.6593 1029.22 50.6047 1031.04 54.49C1032.92 58.3753 1033.86 63.1067 1033.86 68.684V71.034H997.672C997.985 76.3607 999.395 80.3713 1001.9 83.066C1004.47 85.7607 1007.92 87.108 1012.24 87.108C1015.5 87.108 1018.16 86.356 1020.23 84.852C1022.36 83.2853 1023.84 81.2487 1024.65 78.742L1033.11 79.4C1031.79 83.8493 1029.29 87.5153 1025.59 90.398C1021.96 93.218 1017.51 94.628 1012.24 94.628ZM997.672 64.078H1025.21C1024.84 59.2527 1023.43 55.712 1020.98 53.456C1018.6 51.2 1015.56 50.072 1011.87 50.072C1008.04 50.072 1004.88 51.2627 1002.37 53.644C999.928 55.9627 998.361 59.4407 997.672 64.078Z" fill="white"/>
<defs>
<clipPath id="clip0_2570_155">
<rect width="137" height="120" fill="white"/>
</clipPath>
</defs>
</svg>
