<svg width="183" height="161" viewBox="0 0 183 161" fill="none" xmlns="http://www.w3.org/2000/svg">
<g clip-path="url(#clip0_2565_1504)">
<path d="M178.941 160.378H155.28C154.012 160.378 152.841 159.694 152.158 158.571L76.1517 26.9389C75.42 25.7182 75.42 24.2535 76.1517 22.984L88.0064 2.47748C89.5187 -0.159078 93.3239 -0.159078 94.8362 2.47748L176.307 143.582L182.453 154.226C184.014 156.911 182.063 160.329 178.941 160.329V160.378Z" fill="white"/>
<path d="M114.838 160.378C114.448 160.524 114.009 160.573 113.57 160.573H89.8602C89.4212 160.573 88.9821 160.524 88.5918 160.378C87.7137 160.085 86.9331 159.499 86.4453 158.62L61.9554 116.142C60.4431 113.506 56.6867 113.506 55.1744 116.142L30.9772 158.083C30.1479 159.499 28.6355 160.378 26.9769 160.378H4.0481C0.877102 160.378 -1.12307 156.96 0.486825 154.177L6.73125 143.338L46.1492 75.1781C48.5397 70.735 53.1742 67.659 58.5405 67.659C63.9068 67.659 68.1511 70.3932 70.6391 74.5433H70.7366L116.984 154.714C118.253 156.96 117.082 159.597 114.838 160.378Z" fill="white"/>
</g>
<defs>
<clipPath id="clip0_2565_1504">
<rect width="183" height="160" fill="white" transform="translate(0 0.5)"/>
</clipPath>
</defs>
</svg>
