<svg width="32" height="32" viewBox="0 0 32 32" fill="none" xmlns="http://www.w3.org/2000/svg">
<rect x="0.75" y="0.75" width="30.5" height="30.5" rx="15.25" fill="black"/>
<rect x="0.75" y="0.75" width="30.5" height="30.5" rx="15.25" stroke="white" stroke-width="1.5"/>
<g clip-path="url(#clip0_10978_183373)">
<path d="M23.8891 22.0658H21.7881C21.6754 22.0658 21.5715 22.0053 21.5108 21.906L14.7616 10.2621C14.6966 10.1541 14.6966 10.0245 14.7616 9.91222L15.8143 8.09826C15.9486 7.86503 16.2865 7.86503 16.4208 8.09826L23.6552 20.58L24.201 21.5216C24.3396 21.7591 24.1663 22.0614 23.8891 22.0614V22.0658Z" fill="white"/>
<path d="M18.1969 22.066C18.1622 22.0789 18.1232 22.0832 18.0842 22.0832H15.9789C15.9399 22.0832 15.9009 22.0789 15.8663 22.066C15.7883 22.04 15.719 21.9882 15.6756 21.9105L13.501 18.153C13.3667 17.9198 13.0331 17.9198 12.8989 18.153L10.7502 21.863C10.6766 21.9882 10.5423 22.066 10.395 22.066H8.35896C8.07738 22.066 7.89977 21.7636 8.04272 21.5174L8.59721 20.5586L12.0974 14.5294C12.3097 14.1364 12.7212 13.8643 13.1978 13.8643C13.6743 13.8643 14.0512 14.1061 14.2721 14.4732H14.2808L18.3875 21.565C18.5001 21.7636 18.3961 21.9969 18.1969 22.066Z" fill="white"/>
</g>
<defs>
<clipPath id="clip0_10978_183373">
<rect width="16.25" height="14.1532" fill="white" transform="translate(8 7.92334)"/>
</clipPath>
</defs>
</svg>
