<svg width="32" height="22" viewBox="0 0 32 22" fill="none" xmlns="http://www.w3.org/2000/svg">
<path d="M17.9019 10.1418H21.1785V7.17723H17.9019V10.1418ZM14.0013 10.1418H17.2778V7.17723H14.0013V10.1418ZM10.1785 10.1418H13.4551V7.17723H10.1785V10.1418ZM6.35573 10.1418H9.55456V7.17723H6.35589L6.35573 10.1418ZM2.45514 10.1418H5.73178V7.17723H2.45514V10.1418ZM6.35589 6.55312H9.5544V3.58869H6.35589V6.55312ZM10.1787 6.55312H13.4551V3.58869H10.1785L10.1787 6.55312ZM14.0013 6.55312H17.2778V3.58869H14.0013V6.55312ZM14.0013 2.96443H17.2778V0H14.0013V2.96443ZM31.6324 8.81578C31.6324 8.81578 30.2281 7.48944 27.3416 7.9576C27.0295 5.69509 24.6111 4.36891 24.6111 4.36891C24.6111 4.36891 22.3487 7.09941 23.987 10.142C23.519 10.3761 22.7388 10.6881 21.5685 10.6881H0.114824C-0.275362 12.1704 -0.275361 22 10.4906 22C18.2139 22 23.987 18.4115 26.7175 11.8582C30.7742 12.1702 31.6324 8.81578 31.6324 8.81578Z" fill="white"/>
</svg>
