<svg width="25" height="24" viewBox="0 0 25 24" fill="none" xmlns="http://www.w3.org/2000/svg">
<path fill-rule="evenodd" clip-rule="evenodd" d="M9.625 2C9.97018 2 10.25 2.27982 10.25 2.625C10.25 2.97018 9.97018 3.25 9.625 3.25H6.25C4.73122 3.25 3.5 4.48122 3.5 6V9.375C3.5 9.72018 3.22018 10 2.875 10C2.52982 10 2.25 9.72018 2.25 9.375V6C2.25 3.79086 4.04086 2 6.25 2H9.625ZM14.875 3.25C14.5298 3.25 14.25 2.97018 14.25 2.625C14.25 2.27982 14.5298 2 14.875 2H18.25C20.4591 2 22.25 3.79086 22.25 6V9.375C22.25 9.72018 21.9702 10 21.625 10C21.2798 10 21 9.72018 21 9.375V6C21 4.48122 19.7688 3.25 18.25 3.25H14.875ZM21 14.625V18C21 19.5188 19.7688 20.75 18.25 20.75H14.875C14.5298 20.75 14.25 21.0298 14.25 21.375C14.25 21.7202 14.5298 22 14.875 22H18.25C20.4591 22 22.25 20.2091 22.25 18V14.625C22.25 14.2798 21.9702 14 21.625 14C21.2798 14 21 14.2798 21 14.625ZM9.625 20.75C9.97018 20.75 10.25 21.0298 10.25 21.375C10.25 21.7202 9.97018 22 9.625 22H6.25C4.04086 22 2.25 20.2091 2.25 18V14.625C2.25 14.2798 2.52982 14 2.875 14C3.22018 14 3.5 14.2798 3.5 14.625V18C3.5 19.5188 4.73122 20.75 6.25 20.75H9.625ZM6.125 7.5C6.125 6.60254 6.85254 5.875 7.75 5.875H9.75C10.6475 5.875 11.375 6.60254 11.375 7.5V9.5C11.375 10.3975 10.6475 11.125 9.75 11.125H7.75C6.85254 11.125 6.125 10.3975 6.125 9.5V7.5ZM7.75 12.875C6.85254 12.875 6.125 13.6025 6.125 14.5V16.5C6.125 17.3975 6.85254 18.125 7.75 18.125H9.75C10.6475 18.125 11.375 17.3975 11.375 16.5V14.5C11.375 13.6025 10.6475 12.875 9.75 12.875H7.75ZM14.75 5.875C13.8525 5.875 13.125 6.60254 13.125 7.5V9.5C13.125 10.3975 13.8525 11.125 14.75 11.125H16.75C17.6475 11.125 18.375 10.3975 18.375 9.5V7.5C18.375 6.60254 17.6475 5.875 16.75 5.875H14.75ZM14.75 12.875C13.8525 12.875 13.125 13.6025 13.125 14.5V16.5C13.125 17.3975 13.8525 18.125 14.75 18.125H16.75C17.6475 18.125 18.375 17.3975 18.375 16.5V14.5C18.375 13.6025 17.6475 12.875 16.75 12.875H14.75Z" fill="currentColor"/>
</svg>
