<svg width="32" height="32" viewBox="0 0 32 32" fill="none" xmlns="http://www.w3.org/2000/svg">
<path d="M26.6667 15.3333H24.6667V10C24.6667 8.53333 23.4667 7.33333 22 7.33333H16.6667V5.33333C16.6667 4.44928 16.3155 3.60143 15.6904 2.97631C15.0652 2.35119 14.2174 2 13.3333 2C12.4493 2 11.6014 2.35119 10.9763 2.97631C10.3512 3.60143 10 4.44928 10 5.33333V7.33333H4.66667C3.2 7.33333 2.01333 8.53333 2.01333 10V15.0667H4C5.98667 15.0667 7.6 16.68 7.6 18.6667C7.6 20.6533 5.98667 22.2667 4 22.2667H2V27.3333C2 28.8 3.2 30 4.66667 30H9.73333V28C9.73333 26.0133 11.3467 24.4 13.3333 24.4C15.32 24.4 16.9333 26.0133 16.9333 28V30H22C23.4667 30 24.6667 28.8 24.6667 27.3333V22H26.6667C27.5507 22 28.3986 21.6488 29.0237 21.0237C29.6488 20.3986 30 19.5507 30 18.6667C30 17.7826 29.6488 16.9348 29.0237 16.3096C28.3986 15.6845 27.5507 15.3333 26.6667 15.3333Z" fill="white"/>
</svg>
