<svg width="19" height="18" viewBox="0 0 19 18" fill="none" xmlns="http://www.w3.org/2000/svg">
<g id="Frame" clip-path="url(#clip0_3917_1719)">
<path id="Vector" d="M18.0001 9.5C18.0013 8.49897 17.8252 7.50564 17.4801 6.566C17.2501 9.2605 15.8136 10.6445 14.3126 10C12.9066 9.396 13.8541 7.0415 13.9241 5.918C14.0421 4.0135 13.9181 1.8335 10.4586 0.0209961C11.8961 2.771 10.6251 4.4795 9.29207 4.5835C7.81307 4.699 6.45857 3.3125 6.95857 1.0625C5.33957 2.2555 5.29257 4.2635 5.79207 5.5625C6.31307 6.9165 5.77107 8.0415 4.50057 8.1665C3.08057 8.3065 2.29157 6.646 3.01907 4C1.71308 5.53469 0.997201 7.48483 1.00007 9.5C1.00007 14.1945 4.80557 18 9.50007 18C14.1946 18 18.0001 14.1945 18.0001 9.5Z" fill="#F4900C"/>
<path id="Vector_2" d="M14.697 11.9995C14.771 13.5415 13.4165 14.146 12.6875 13.854C11.6345 13.4325 11.917 12.7085 11.646 11.2085C11.375 9.7085 10.3335 8.667 8.792 8.2085C9.917 11.375 8.1685 12.542 7.252 12.7505C6.316 12.9635 5.3755 12.75 5.268 10.747C4.70689 11.3039 4.26174 11.9665 3.95827 12.6965C3.65481 13.4265 3.49905 14.2094 3.5 15C3.5 15.184 3.5115 15.365 3.5275 15.545C5.0625 17.062 7.171 18 9.5 18C11.829 18 13.9375 17.062 15.4725 15.545C15.4885 15.365 15.5 15.184 15.5 15C15.5 13.9065 15.208 12.882 14.697 11.9995Z" fill="#FFCC4D"/>
</g>
<defs>
<clipPath id="clip0_3917_1719">
<rect width="18" height="18" fill="white" transform="translate(0.5)"/>
</clipPath>
</defs>
</svg>
