<svg width="19" height="18" viewBox="0 0 19 18" fill="none" xmlns="http://www.w3.org/2000/svg">
  <path
    d="M17.9057 7.74372L17.8234 7.3946H10.2352V10.6062H14.7691C14.2983 12.8415 12.114 14.0181 10.3298 14.0181C9.03163 14.0181 7.66316 13.4721 6.75741 12.5943C6.27953 12.1238 5.89914 11.5637 5.63802 10.946C5.3769 10.3283 5.24018 9.6652 5.23568 8.9946C5.23568 7.64179 5.84364 6.28862 6.72828 5.39851C7.61292 4.50841 8.94899 4.01039 10.2774 4.01039C11.7988 4.01039 12.8891 4.81822 13.2968 5.18664L15.5791 2.91642C14.9096 2.32811 13.0704 0.845703 10.2039 0.845703C7.99226 0.845703 5.87167 1.69285 4.32155 3.23788C2.79181 4.75924 2 6.9592 2 9.00042C2 11.0417 2.74922 13.1317 4.23163 14.665C5.81561 16.3004 8.05889 17.1551 10.3688 17.1551C12.4704 17.1551 14.4625 16.3317 15.8823 14.8376C17.2781 13.3668 18 11.3318 18 9.19847C18 8.30036 17.9097 7.76702 17.9057 7.74372Z"
    fill="currentColor" />
</svg>