<svg width="19" height="19" viewBox="0 0 19 19" fill="none" xmlns="http://www.w3.org/2000/svg">
  <path
    d="M16.8132 3.87549H1.62573C1.47655 3.87549 1.33347 3.93475 1.22798 4.04024C1.1225 4.14573 1.06323 4.2888 1.06323 4.43799V15.1255C1.06323 15.2747 1.1225 15.4177 1.22798 15.5232C1.33347 15.6287 1.47655 15.688 1.62573 15.688C1.77492 15.688 1.91799 15.6287 2.02348 15.5232C2.12897 15.4177 2.18823 15.2747 2.18823 15.1255V14.0005H3.31323V15.1255C3.31323 15.2747 3.3725 15.4177 3.47798 15.5232C3.58347 15.6287 3.72655 15.688 3.87573 15.688C4.02492 15.688 4.16799 15.6287 4.27348 15.5232C4.37897 15.4177 4.43823 15.2747 4.43823 15.1255V14.0005H5.56323V15.1255C5.56323 15.2747 5.6225 15.4177 5.72798 15.5232C5.83347 15.6287 5.97655 15.688 6.12573 15.688C6.27492 15.688 6.41799 15.6287 6.52348 15.5232C6.62897 15.4177 6.68823 15.2747 6.68823 15.1255V14.0005H7.81323V15.1255C7.81323 15.2747 7.8725 15.4177 7.97798 15.5232C8.08347 15.6287 8.22655 15.688 8.37573 15.688C8.52492 15.688 8.66799 15.6287 8.77348 15.5232C8.87897 15.4177 8.93823 15.2747 8.93823 15.1255V14.0005H16.8132C17.1116 14.0005 17.3977 13.882 17.6087 13.671C17.8197 13.46 17.9382 13.1739 17.9382 12.8755V5.00049C17.9382 4.70212 17.8197 4.41597 17.6087 4.20499C17.3977 3.99401 17.1116 3.87549 16.8132 3.87549ZM16.8132 12.8755H2.18823V5.00049H16.8132V12.8755ZM12.8757 11.7505C13.432 11.7505 13.9758 11.5855 14.4383 11.2765C14.9008 10.9675 15.2613 10.5282 15.4741 10.0143C15.687 9.50037 15.7427 8.93487 15.6342 8.3893C15.5257 7.84373 15.2578 7.34259 14.8645 6.94925C14.4711 6.55592 13.97 6.28805 13.4244 6.17953C12.8789 6.07101 12.3134 6.12671 11.7994 6.33958C11.2855 6.55245 10.8463 6.91293 10.5372 7.37545C10.2282 7.83796 10.0632 8.38173 10.0632 8.93799C10.0632 9.68391 10.3595 10.3993 10.887 10.9267C11.4144 11.4542 12.1298 11.7505 12.8757 11.7505ZM11.1882 8.93799C11.1878 8.68629 11.2443 8.43774 11.3535 8.21096L13.6035 10.461C13.3764 10.57 13.1276 10.6263 12.8757 10.6255C12.4282 10.6255 11.999 10.4477 11.6825 10.1312C11.366 9.81476 11.1882 9.38554 11.1882 8.93799ZM14.5632 8.93799C14.5637 9.18969 14.5072 9.43823 14.398 9.66502L12.148 7.41502C12.3751 7.30597 12.6238 7.24972 12.8757 7.25049C13.3233 7.25049 13.7525 7.42828 14.069 7.74475C14.3854 8.06121 14.5632 8.49044 14.5632 8.93799ZM6.12573 11.7505C6.68199 11.7505 7.22576 11.5855 7.68827 11.2765C8.15079 10.9675 8.51127 10.5282 8.72414 10.0143C8.93702 9.50037 8.99271 8.93487 8.88419 8.3893C8.77567 7.84373 8.50781 7.34259 8.11447 6.94925C7.72114 6.55592 7.22 6.28805 6.67442 6.17953C6.12885 6.07101 5.56335 6.12671 5.04944 6.33958C4.53552 6.55245 4.09627 6.91293 3.78722 7.37545C3.47818 7.83796 3.31323 8.38173 3.31323 8.93799C3.31323 9.68391 3.60955 10.3993 4.13699 10.9267C4.66444 11.4542 5.37981 11.7505 6.12573 11.7505ZM4.43823 8.93799C4.43779 8.68629 4.49428 8.43774 4.60347 8.21096L6.85347 10.461C6.62641 10.57 6.37762 10.6263 6.12573 10.6255C5.67818 10.6255 5.24896 10.4477 4.93249 10.1312C4.61602 9.81476 4.43823 9.38554 4.43823 8.93799ZM7.81323 8.93799C7.81367 9.18969 7.75719 9.43823 7.648 9.66502L5.398 7.41502C5.62506 7.30597 5.87385 7.24972 6.12573 7.25049C6.57329 7.25049 7.00251 7.42828 7.31898 7.74475C7.63544 8.06121 7.81323 8.49044 7.81323 8.93799Z"
    fill="currentColor" />
</svg>