<svg width="24" height="24" viewBox="0 0 24 24" fill="none" xmlns="http://www.w3.org/2000/svg">
<path d="M12 17C12.55 17 13.021 16.8043 13.413 16.413C13.805 16.0217 14.0007 15.5507 14 15C13.9993 14.4493 13.8037 13.9787 13.413 13.588C13.0223 13.1973 12.5513 13.0013 12 13C11.4487 12.9987 10.978 13.1947 10.588 13.588C10.198 13.9813 10.002 14.452 10 15C9.998 15.548 10.194 16.019 10.588 16.413C10.982 16.807 11.4527 17.0027 12 17ZM6 22C5.45 22 4.97933 21.8043 4.588 21.413C4.19667 21.0217 4.00067 20.5507 4 20V10C4 9.45 4.196 8.97933 4.588 8.588C4.98 8.19667 5.45067 8.00067 6 8H13V6C13 4.61667 13.4877 3.43767 14.463 2.463C15.4383 1.48833 16.6173 1.00067 18 1C19.25 1 20.3377 1.40433 21.263 2.213C22.1883 3.02167 22.7423 4.01733 22.925 5.2C22.9583 5.41667 22.8833 5.60433 22.7 5.763C22.5167 5.92167 22.2833 6.00067 22 6C21.7167 5.99933 21.4833 5.941 21.3 5.825C21.1167 5.709 20.9833 5.51733 20.9 5.25C20.7167 4.61667 20.3627 4.08333 19.838 3.65C19.3133 3.21667 18.7007 3 18 3C17.1667 3 16.4583 3.29167 15.875 3.875C15.2917 4.45833 15 5.16667 15 6V8H18C18.55 8 19.021 8.196 19.413 8.588C19.805 8.98 20.0007 9.45067 20 10V20C20 20.55 19.8043 21.021 19.413 21.413C19.0217 21.805 18.5507 22.0007 18 22H6Z" fill="white"/>
</svg>
