<svg width="19" height="18" viewBox="0 0 19 18" fill="none" xmlns="http://www.w3.org/2000/svg">
  <g id="Frame" clip-path="url(#clip0_871_883)">
    <path id="Vector" d="M4.49902 6.00049H6.49902V10.0005H4.49902V6.00049Z" fill="currentColor" />
    <path id="Vector_2" d="M8.50586 6.00049H10.5059V10.0005H8.50586V6.00049Z" fill="currentColor" />
    <path id="Vector_3" d="M12.5049 6.00049H14.5049V10.0005H12.5049V6.00049Z" fill="currentColor" />
    <path id="Vector_4"
      d="M8.00391 13.5H2.50391V8.5H1.50391V13.5C1.50391 13.7652 1.60926 14.0196 1.7968 14.2071C1.98434 14.3946 2.23869 14.5 2.50391 14.5H8.80891V12.775H9.93891V12H8.00391V13.5Z"
      fill="currentColor" />
    <path id="Vector_5"
      d="M16.5039 3.5H2.50391C2.23869 3.5 1.98434 3.60536 1.7968 3.79289C1.60926 3.98043 1.50391 4.23478 1.50391 4.5V6.5H2.50391V4.5H16.5039V6.5H17.5039V4.5C17.5039 4.23478 17.3986 3.98043 17.211 3.79289C17.0235 3.60536 16.7691 3.5 16.5039 3.5Z"
      fill="currentColor" />
    <path id="Vector_6"
      d="M16.5 13.5H10V14.5H16.5C16.7652 14.5 17.0196 14.3946 17.2071 14.2071C17.3946 14.0196 17.5 13.7652 17.5 13.5V8.5H16.5V13.5Z"
      fill="currentColor" />
  </g>
  <defs>
    <clipPath id="clip0_871_883">
      <rect width="18" height="18" fill="currentColor" transform="translate(0.5)" />
    </clipPath>
  </defs>
</svg>