<svg width="25" height="24" viewBox="0 0 25 24" fill="none" xmlns="http://www.w3.org/2000/svg">
<path fill-rule="evenodd" clip-rule="evenodd" d="M15.7607 21.7418C15.7607 21.4654 15.9398 21.2225 16.1985 21.125C19.7006 19.8057 22.2425 16.5354 22.4967 12.6438C22.5192 12.2998 22.7968 12.02 23.1415 12.02C23.4871 12.02 23.769 12.3013 23.749 12.6463C23.4904 17.102 20.5755 20.8462 16.5618 22.3239C16.1652 22.4699 15.7607 22.1645 15.7607 21.7418ZM9.73937 21.7419C9.73937 21.4654 9.56021 21.2225 9.30154 21.125C5.79946 19.8057 3.25746 16.5354 3.00326 12.6438C2.98079 12.2998 2.70323 12.02 2.35851 12.02C2.01285 12.02 1.73098 12.3013 1.75101 12.6463C2.00959 17.102 4.92451 20.8462 8.93824 22.3239C9.33484 22.4699 9.73937 22.1645 9.73937 21.7419ZM12.75 1C16.186 1 19.2546 2.5703 21.2751 5.0313C21.6066 5.43503 21.3008 6.01001 20.7785 6.01001C20.5759 6.01001 20.3857 5.9158 20.2558 5.76032C18.4644 3.61541 15.7675 2.25 12.75 2.25C9.73254 2.25 7.03562 3.61541 5.2442 5.76032C5.11434 5.9158 4.92411 6.01001 4.72153 6.01001C4.19916 6.01001 3.8934 5.43503 4.22488 5.0313C6.24544 2.5703 9.31404 1 12.75 1ZM4.2403 9C4.2403 9.55229 3.79099 10 3.23675 10C2.6825 10 2.2332 9.55229 2.2332 9C2.2332 8.44772 2.6825 8 3.23675 8C3.79099 8 4.2403 8.44772 4.2403 9ZM22.2673 10C22.8216 10 23.2709 9.55229 23.2709 9C23.2709 8.44772 22.8216 8 22.2673 8C21.7131 8 21.2638 8.44772 21.2638 9C21.2638 9.55229 21.7131 10 22.2673 10ZM13.7531 22C13.7531 22.5523 13.3038 23 12.7496 23C12.1953 23 11.746 22.5523 11.746 22C11.746 21.4477 12.1953 21 12.7496 21C13.3038 21 13.7531 21.4477 13.7531 22ZM12.7501 16C14.9628 16 16.7565 14.2091 16.7565 12C16.7565 9.79086 14.9628 8 12.7501 8C10.5374 8 8.74366 9.79086 8.74366 12C8.74366 14.2091 10.5374 16 12.7501 16Z" fill="currentColor"/>
</svg>
