<svg width="24" height="24" viewBox="0 0 24 24" fill="none" xmlns="http://www.w3.org/2000/svg">
<path d="M21.5302 20.51H18.9478C18.8094 20.51 18.6816 20.4351 18.6071 20.3121L10.3114 5.8957C10.2315 5.76202 10.2315 5.6016 10.3114 5.46257L11.6052 3.21669C11.7703 2.92793 12.1856 2.92793 12.3507 3.21669L21.2427 18.6705L21.9136 19.8362C22.084 20.1303 21.871 20.5046 21.5302 20.5046V20.51Z" fill="white"/>
<path d="M14.5339 20.5099C14.4913 20.526 14.4434 20.5313 14.3954 20.5313H11.8077C11.7598 20.5313 11.7119 20.526 11.6693 20.5099C11.5734 20.4779 11.4882 20.4137 11.435 20.3174L8.76205 15.6653C8.59699 15.3765 8.18699 15.3765 8.02193 15.6653L5.38094 20.2586C5.29042 20.4137 5.12536 20.5099 4.94433 20.5099H2.44178C2.09568 20.5099 1.87737 20.1356 2.05308 19.8308L2.73463 18.6437L7.03688 11.1788C7.29779 10.6922 7.80362 10.3553 8.38933 10.3553C8.97503 10.3553 9.43827 10.6548 9.70982 11.1093H9.72047L14.7682 19.8896C14.9066 20.1356 14.7788 20.4244 14.5339 20.5099Z" fill="white"/>
</svg>
