<svg width="24" height="24" viewBox="0 0 24 24" fill="none" xmlns="http://www.w3.org/2000/svg">
<path fill-rule="evenodd" clip-rule="evenodd" d="M12 5.99999C11.5404 5.99999 11.0852 6.09052 10.6606 6.26641C10.236 6.4423 9.85013 6.70011 9.52513 7.02511C9.20012 7.35012 8.94231 7.73595 8.76642 8.16059C8.59053 8.58523 8.5 9.04036 8.5 9.49999C8.5 9.95961 8.59053 10.4147 8.76642 10.8394C8.94231 11.264 9.20012 11.6499 9.52513 11.9749C9.85013 12.2999 10.236 12.5577 10.6606 12.7336C11.0852 12.9095 11.5404 13 12 13C12.9283 13 13.8185 12.6312 14.4749 11.9749C15.1313 11.3185 15.5 10.4282 15.5 9.49999C15.5 8.57173 15.1313 7.68149 14.4749 7.02511C13.8185 6.36874 12.9283 5.99999 12 5.99999ZM10.5 14C9.43913 14 8.42172 14.4214 7.67157 15.1716C6.92143 15.9217 6.5 16.9391 6.5 18C6.5 18.5304 6.71071 19.0391 7.08579 19.4142C7.46086 19.7893 7.96957 20 8.5 20H15.5C16.0304 20 16.5391 19.7893 16.9142 19.4142C17.2893 19.0391 17.5 18.5304 17.5 18C17.5 16.9391 17.0786 15.9217 16.3284 15.1716C15.5783 14.4214 14.5609 14 13.5 14H10.5ZM17.32 10.904C17.6379 9.69333 17.5341 8.41051 17.0257 7.2667C16.5174 6.12288 15.6347 5.18625 14.523 4.61099C14.9466 4.3215 15.4287 4.1287 15.9351 4.04622C16.4415 3.96375 16.9599 3.99362 17.4535 4.13373C17.947 4.27383 18.4038 4.52075 18.7913 4.85698C19.1789 5.19321 19.4878 5.61054 19.6961 6.07941C19.9045 6.54828 20.0072 7.05723 19.997 7.57021C19.9868 8.08319 19.864 8.58766 19.6372 9.04789C19.4104 9.50812 19.0851 9.91285 18.6845 10.2334C18.2839 10.554 17.8178 10.7826 17.319 10.903L17.32 10.904ZM19.5 18H20C20.5304 18 21.0391 17.7893 21.4142 17.4142C21.7893 17.0391 22 16.5304 22 16C22 14.9391 21.5786 13.9217 20.8284 13.1716C20.0783 12.4214 19.0609 12 18 12H16.9C16.764 12.2664 16.6065 12.5212 16.429 12.762C17.3605 13.283 18.1362 14.0431 18.676 14.9638C19.2158 15.8846 19.5003 16.9327 19.5 18ZM4 7.49999C3.99985 6.86277 4.17366 6.23761 4.50268 5.69192C4.8317 5.14623 5.30346 4.70071 5.86707 4.40342C6.43068 4.10613 7.06476 3.96834 7.70092 4.00492C8.33708 4.0415 8.95118 4.25105 9.477 4.61099C8.36425 5.18501 7.48066 6.12153 6.97227 7.26576C6.46389 8.41 6.36114 9.69345 6.681 10.904C5.9168 10.7201 5.23675 10.2842 4.75041 9.66674C4.26407 9.04924 3.99974 8.28601 4 7.49999ZM7.1 12H6C4.93913 12 3.92172 12.4214 3.17157 13.1716C2.42143 13.9217 2 14.9391 2 16C2 16.5304 2.21071 17.0391 2.58579 17.4142C2.96086 17.7893 3.46957 18 4 18H4.5C4.49973 16.9327 4.78418 15.8846 5.32401 14.9638C5.86383 14.0431 6.63949 13.283 7.571 12.762C7.39354 12.5212 7.23602 12.2664 7.1 12Z" fill="currentColor"/>
</svg>
