<svg width="24" height="24" viewBox="0 0 24 24" fill="none" xmlns="http://www.w3.org/2000/svg">
<path d="M3.66667 17.7142H3.11111C2.81643 17.7142 2.53381 17.5938 2.32544 17.3794C2.11706 17.1651 2 16.8744 2 16.5713C2 15.6619 2.35119 14.7898 2.97631 14.1468C3.60143 13.5038 4.44928 13.1425 5.33333 13.1425H6.44444M6.44444 9.65662C6.03646 9.57079 5.65246 9.39171 5.32085 9.13262C4.98924 8.87352 4.7185 8.54105 4.52867 8.1598C4.33884 7.77855 4.23477 7.35827 4.22416 6.93006C4.21356 6.50186 4.29668 6.07668 4.46739 5.68597C4.6381 5.29527 4.89203 4.94905 5.21038 4.67292C5.52873 4.3968 5.90337 4.19783 6.30657 4.09074C6.70978 3.98365 7.13123 3.97118 7.53975 4.05425C7.94827 4.13732 8.33341 4.31381 8.66667 4.57066M20.3333 17.7142H20.8889C21.1836 17.7142 21.4662 17.5938 21.6746 17.3794C21.8829 17.1651 22 16.8744 22 16.5713C22 15.6619 21.6488 14.7898 21.0237 14.1468C20.3986 13.5038 19.5507 13.1425 18.6667 13.1425H17.5556M17.5556 9.65662C17.9635 9.57079 18.3475 9.39171 18.6792 9.13262C19.0108 8.87352 19.2815 8.54105 19.4713 8.1598C19.6612 7.77855 19.7652 7.35827 19.7758 6.93006C19.7864 6.50186 19.7033 6.07668 19.5326 5.68597C19.3619 5.29527 19.108 4.94905 18.7896 4.67292C18.4713 4.3968 18.0966 4.19783 17.6934 4.09074C17.2902 3.98365 16.8688 3.97118 16.4603 4.05425C16.0517 4.13732 15.6666 4.31381 15.3333 4.57066M15.8889 20H8.11111C7.81643 20 7.53381 19.8796 7.32544 19.6652C7.11706 19.4509 7 19.1602 7 18.8571C7 17.9477 7.35119 17.0756 7.97631 16.4326C8.60143 15.7896 9.44928 15.4283 10.3333 15.4283H13.6667C14.5507 15.4283 15.3986 15.7896 16.0237 16.4326C16.6488 17.0756 17 17.9477 17 18.8571C17 19.1602 16.8829 19.4509 16.6746 19.6652C16.4662 19.8796 16.1836 20 15.8889 20ZM14.7778 9.14231C14.7778 9.90011 14.4851 10.6269 13.9642 11.1627C13.4433 11.6986 12.7367 11.9996 12 11.9996C11.2633 11.9996 10.5567 11.6986 10.0358 11.1627C9.51488 10.6269 9.22222 9.90011 9.22222 9.14231C9.22222 8.38451 9.51488 7.65775 10.0358 7.12191C10.5567 6.58606 11.2633 6.28503 12 6.28503C12.7367 6.28503 13.4433 6.58606 13.9642 7.12191C14.4851 7.65775 14.7778 8.38451 14.7778 9.14231Z" stroke="currentColor" stroke-width="1.25" stroke-linecap="round"/>
</svg>
