<svg width="19" height="18" viewBox="0 0 19 18" fill="none" xmlns="http://www.w3.org/2000/svg">
<g clip-path="url(#clip0_3624_15763)">
<path d="M0.472168 13.1373C0.472168 15.0891 4.50107 16.6683 9.47076 16.6683C14.4404 16.6683 18.4708 15.0891 18.4708 13.1373C18.4708 11.1868 18.264 1.33179 9.47076 1.33179C0.678887 1.33179 0.472168 11.1868 0.472168 13.1373Z" fill="#FCC21B"/>
<path d="M4.87646 8.92119C4.8413 8.92119 4.80755 8.92119 4.7724 8.91978C4.67006 8.91575 4.57349 8.87129 4.50389 8.79616C4.43429 8.72102 4.39734 8.62135 4.40115 8.519C4.40958 8.30525 4.58818 8.1379 4.80193 8.14775C5.6724 8.1815 6.44021 7.61478 6.66661 6.77103C6.72146 6.56431 6.9338 6.44197 7.14052 6.49822C7.34724 6.55306 7.46958 6.7654 7.41333 6.97212C7.10255 8.13087 6.06755 8.92119 4.87646 8.92119ZM14.0663 8.92119C12.8752 8.92119 11.8402 8.13087 11.5294 6.96931C11.5032 6.8703 11.5171 6.76493 11.5682 6.67616C11.6193 6.58738 11.7034 6.52241 11.8022 6.4954C12.009 6.44056 12.2213 6.5629 12.2761 6.76822C12.5026 7.61197 13.2704 8.17869 14.1408 8.14494C14.2431 8.14151 14.3425 8.17858 14.4176 8.24811C14.4927 8.31763 14.5372 8.41397 14.5416 8.51619C14.5501 8.72994 14.3841 8.90994 14.1704 8.91697C14.1352 8.92119 14.1015 8.92119 14.0663 8.92119Z" fill="#2F2F2F"/>
<path d="M1.47489 9.49777C1.62114 10.1573 2.05145 10.5679 2.41426 10.6804C2.82067 10.8056 3.18911 10.7451 3.45208 10.5117C3.78536 10.215 3.90067 9.69043 3.77973 9.03371C3.55895 7.85386 3.71504 5.77543 3.71645 5.75574C3.72208 5.67558 3.6827 5.60246 3.60958 5.56871C3.53926 5.53215 3.45489 5.54621 3.39583 5.59965C1.37926 7.4334 1.32583 8.8284 1.47489 9.49777Z" fill="white"/>
<path d="M12.4307 9.67358C11.0976 9.67358 10.6574 10.3289 9.47057 10.3289C8.2837 10.3289 7.84354 9.67358 6.51042 9.67358C5.17729 9.67358 4.09729 10.6101 4.09729 11.7661C4.09729 12.922 5.17729 13.8586 6.51042 13.8586C7.84354 13.8586 8.2837 13.2033 9.47057 13.2033C10.6574 13.2033 11.0976 13.8586 12.4307 13.8586C13.7639 13.8586 14.8439 12.9206 14.8439 11.7647C14.8439 10.6101 13.7639 9.67358 12.4307 9.67358Z" fill="#ED6C30"/>
</g>
<defs>
<clipPath id="clip0_3624_15763">
<rect width="18" height="18" fill="white" transform="translate(0.5)"/>
</clipPath>
</defs>
</svg>
